<svg xmlns="http://www.w3.org/2000/svg" xmlns:xlink="http://www.w3.org/1999/xlink" viewBox="0 0 199.73 278.74"><defs><filter id="luminosity-noclip" x="1.87" y="-8330.97" width="195.99" height="32766" filterUnits="userSpaceOnUse" color-interpolation-filters="sRGB"><feFlood flood-color="#fff" result="bg"/><feBlend in="SourceGraphic" in2="bg"/></filter><mask id="mask" x="1.87" y="-8330.97" width="195.99" height="32766" maskUnits="userSpaceOnUse"><g filter="url(#luminosity-noclip)"/></mask><radialGradient id="radial-gradient" cx="48.16" cy="129.62" r="196.54" gradientUnits="userSpaceOnUse"><stop offset="0" stop-color="#fff"/><stop offset="0.51" stop-color="#4d4d4d"/><stop offset="1" stop-color="#fff"/></radialGradient><filter id="luminosity-noclip-2" x="6.67" y="-8330.97" width="175.75" height="32766" filterUnits="userSpaceOnUse" color-interpolation-filters="sRGB"><feFlood flood-color="#fff" result="bg"/><feBlend in="SourceGraphic" in2="bg"/></filter><mask id="mask-2" x="6.67" y="-8330.97" width="175.75" height="32766" maskUnits="userSpaceOnUse"><g filter="url(#luminosity-noclip-2)"/></mask><radialGradient id="radial-gradient-2" cx="108.31" cy="226.69" r="183.48" gradientUnits="userSpaceOnUse"><stop offset="0.89"/><stop offset="0.97" stop-color="#fff"/><stop offset="1" stop-color="#fff"/></radialGradient><filter id="luminosity-noclip-3" x="6.85" y="-8330.97" width="48.27" height="32766" filterUnits="userSpaceOnUse" color-interpolation-filters="sRGB"><feFlood flood-color="#fff" result="bg"/><feBlend in="SourceGraphic" in2="bg"/></filter><mask id="mask-3" x="6.85" y="-8330.97" width="48.27" height="32766" maskUnits="userSpaceOnUse"><g filter="url(#luminosity-noclip-3)"/></mask><radialGradient id="radial-gradient-3" cx="-108.3" cy="146.93" r="165.66" gradientUnits="userSpaceOnUse"><stop offset="0.26" stop-color="#fff"/><stop offset="0.8" stop-color="#fff"/><stop offset="0.97"/></radialGradient><filter id="luminosity-noclip-4" x="5.16" y="-8330.97" width="186.84" height="32766" filterUnits="userSpaceOnUse" color-interpolation-filters="sRGB"><feFlood flood-color="#fff" result="bg"/><feBlend in="SourceGraphic" in2="bg"/></filter><mask id="mask-4" x="5.16" y="-8330.97" width="186.84" height="32766" maskUnits="userSpaceOnUse"><g filter="url(#luminosity-noclip-4)"/></mask><linearGradient id="linear-gradient" x1="98.57" y1="37.64" x2="98.57" y2="21.08" gradientUnits="userSpaceOnUse"><stop offset="0.43"/><stop offset="0.77" stop-color="#fff"/><stop offset="1" stop-color="#fff"/></linearGradient><filter id="luminosity-noclip-5" x="6.28" y="-8330.97" width="188.1" height="32766" filterUnits="userSpaceOnUse" color-interpolation-filters="sRGB"><feFlood flood-color="#fff" result="bg"/><feBlend in="SourceGraphic" in2="bg"/></filter><mask id="mask-5" x="6.28" y="-8330.97" width="188.1" height="32766" maskUnits="userSpaceOnUse"><g filter="url(#luminosity-noclip-5)"/></mask><radialGradient id="radial-gradient-4" cx="85.31" cy="14.76" r="68.79" gradientTransform="translate(17.84) scale(0.97 1)" gradientUnits="userSpaceOnUse"><stop offset="0" stop-color="#fff"/><stop offset="0.4" stop-color="#fff"/><stop offset="0.85" stop-color="#333"/></radialGradient><radialGradient id="radial-gradient-5" cx="103.54" cy="-1042.21" fx="43.593508260582546" r="86.9" gradientTransform="translate(0 658.05) scale(1 0.63)" xlink:href="#radial-gradient-4"/><filter id="luminosity-noclip-7" x="7.57" y="-8330.97" width="182.93" height="32766" filterUnits="userSpaceOnUse" color-interpolation-filters="sRGB"><feFlood flood-color="#fff" result="bg"/><feBlend in="SourceGraphic" in2="bg"/></filter><mask id="mask-7" x="7.57" y="-8330.97" width="182.93" height="32766" maskUnits="userSpaceOnUse"><g filter="url(#luminosity-noclip-7)"/></mask><radialGradient id="radial-gradient-6" cx="-0.54" cy="-140.18" r="266.38" gradientUnits="userSpaceOnUse"><stop offset="0.74" stop-color="#fff"/><stop offset="0.83" stop-color="#fff"/><stop offset="1"/></radialGradient><filter id="luminosity-noclip-8" x="6.07" y="-8330.97" width="188.1" height="32766" filterUnits="userSpaceOnUse" color-interpolation-filters="sRGB"><feFlood flood-color="#fff" result="bg"/><feBlend in="SourceGraphic" in2="bg"/></filter><mask id="mask-8" x="6.07" y="-8330.97" width="188.1" height="32766" maskUnits="userSpaceOnUse"><g filter="url(#luminosity-noclip-8)"/></mask><radialGradient id="radial-gradient-7" cx="103.33" cy="-1048.85" fx="43.3856116264499" r="86.9" gradientTransform="translate(0 655.37) scale(1 0.63)" xlink:href="#radial-gradient-4"/><filter id="luminosity-noclip-9" x="28.25" y="-8330.97" width="166.12" height="32766" filterUnits="userSpaceOnUse" color-interpolation-filters="sRGB"><feFlood flood-color="#fff" result="bg"/><feBlend in="SourceGraphic" in2="bg"/></filter><mask id="mask-9" x="28.25" y="-8330.97" width="166.12" height="32766" maskUnits="userSpaceOnUse"><g filter="url(#luminosity-noclip-9)"/></mask><linearGradient id="linear-gradient-2" x1="110.79" y1="17.53" x2="112.24" y2="-0.1" gradientUnits="userSpaceOnUse"><stop offset="0.05"/><stop offset="0.55" stop-color="#fff"/><stop offset="0.76" stop-color="#1e1e1e"/><stop offset="1" stop-color="#fff"/></linearGradient><filter id="luminosity-noclip-10" x="14.2" y="-8330.97" width="97.62" height="32766" filterUnits="userSpaceOnUse" color-interpolation-filters="sRGB"><feFlood flood-color="#fff" result="bg"/><feBlend in="SourceGraphic" in2="bg"/></filter><mask id="mask-10" x="14.2" y="-8330.97" width="97.62" height="32766" maskUnits="userSpaceOnUse"><g filter="url(#luminosity-noclip-10)"/></mask><radialGradient id="radial-gradient-8" cx="-1009.22" cy="2443.11" r="33.88" gradientTransform="translate(2504.98 1296.96) rotate(90)" gradientUnits="userSpaceOnUse"><stop offset="0.26" stop-color="#fff"/><stop offset="0.63" stop-color="#fff"/><stop offset="0.96"/></radialGradient><filter id="luminosity-noclip-11" x="29.66" y="-8330.97" width="137.2" height="32766" filterUnits="userSpaceOnUse" color-interpolation-filters="sRGB"><feFlood flood-color="#fff" result="bg"/><feBlend in="SourceGraphic" in2="bg"/></filter><mask id="mask-11" x="29.66" y="-8330.97" width="137.2" height="32766" maskUnits="userSpaceOnUse"><g filter="url(#luminosity-noclip-11)"/></mask><radialGradient id="radial-gradient-9" cx="77.87" cy="224.2" r="79.36" gradientUnits="userSpaceOnUse"><stop offset="0" stop-color="#fff"/><stop offset="0.66" stop-color="#fff"/><stop offset="0.96"/></radialGradient><filter id="luminosity-noclip-12" x="21.93" y="-8330.97" width="113.54" height="32766" filterUnits="userSpaceOnUse" color-interpolation-filters="sRGB"><feFlood flood-color="#fff" result="bg"/><feBlend in="SourceGraphic" in2="bg"/></filter><mask id="mask-12" x="21.93" y="-8330.97" width="113.54" height="32766" maskUnits="userSpaceOnUse"><g filter="url(#luminosity-noclip-12)"/></mask><radialGradient id="radial-gradient-10" cx="79.53" cy="239.13" r="75.27" xlink:href="#radial-gradient-9"/><filter id="luminosity-noclip-13" x="56.76" y="-8330.97" width="103.93" height="32766" filterUnits="userSpaceOnUse" color-interpolation-filters="sRGB"><feFlood flood-color="#fff" result="bg"/><feBlend in="SourceGraphic" in2="bg"/></filter><mask id="mask-13" x="56.76" y="-8330.97" width="103.93" height="32766" maskUnits="userSpaceOnUse"><g filter="url(#luminosity-noclip-13)"/></mask><radialGradient id="radial-gradient-11" cx="116.03" cy="194.75" r="39.82" gradientUnits="userSpaceOnUse"><stop offset="0" stop-color="#fff"/><stop offset="0.63" stop-color="#fff"/><stop offset="0.96"/></radialGradient><filter id="luminosity-noclip-14" x="34.91" y="-8330.97" width="104.38" height="32766" filterUnits="userSpaceOnUse" color-interpolation-filters="sRGB"><feFlood flood-color="#fff" result="bg"/><feBlend in="SourceGraphic" in2="bg"/></filter><mask id="mask-14" x="34.91" y="-8330.97" width="104.38" height="32766" maskUnits="userSpaceOnUse"><g filter="url(#luminosity-noclip-14)"/></mask><radialGradient id="radial-gradient-12" cx="96.54" cy="241.62" r="32.67" gradientUnits="userSpaceOnUse"><stop offset="0" stop-color="#fff"/><stop offset="0.24" stop-color="#fff"/><stop offset="0.96"/></radialGradient><filter id="luminosity-noclip-15" x="156.76" y="-8330.97" width="35.92" height="32766" filterUnits="userSpaceOnUse" color-interpolation-filters="sRGB"><feFlood flood-color="#fff" result="bg"/><feBlend in="SourceGraphic" in2="bg"/></filter><mask id="mask-15" x="156.76" y="-8330.97" width="35.92" height="32766" maskUnits="userSpaceOnUse"><g filter="url(#luminosity-noclip-15)"/></mask><radialGradient id="radial-gradient-13" cx="214.91" cy="201.38" r="49.23" gradientTransform="matrix(1, 0, 0, 1, 0, 0)" xlink:href="#radial-gradient-8"/><filter id="luminosity-noclip-16" x="12.49" y="-8330.97" width="176.71" height="32766" filterUnits="userSpaceOnUse" color-interpolation-filters="sRGB"><feFlood flood-color="#fff" result="bg"/><feBlend in="SourceGraphic" in2="bg"/></filter><mask id="mask-16" x="12.49" y="-8330.97" width="176.71" height="32766" maskUnits="userSpaceOnUse"><g filter="url(#luminosity-noclip-16)"/></mask><radialGradient id="radial-gradient-14" cx="61.43" cy="787.5" r="549.26" gradientUnits="userSpaceOnUse"><stop offset="0.26" stop-color="#fff"/><stop offset="0.93" stop-color="#fff"/><stop offset="0.99"/></radialGradient><filter id="luminosity-noclip-17" x="143.5" y="-8330.97" width="51.88" height="32766" filterUnits="userSpaceOnUse" color-interpolation-filters="sRGB"><feFlood flood-color="#fff" result="bg"/><feBlend in="SourceGraphic" in2="bg"/></filter><mask id="mask-17" x="143.5" y="-8330.97" width="51.88" height="32766" maskUnits="userSpaceOnUse"><g filter="url(#luminosity-noclip-17)"/></mask><radialGradient id="radial-gradient-15" cx="227.48" cy="149.65" r="71.11" gradientTransform="matrix(1, 0, 0, 1, 0, 0)" xlink:href="#radial-gradient-8"/><radialGradient id="radial-gradient-16" cx="68.49" cy="-3.53" r="132.35" gradientUnits="userSpaceOnUse"><stop offset="0" stop-color="#fff"/><stop offset="0.78" stop-color="#d4cfe3"/><stop offset="1" stop-color="#c3bec6"/></radialGradient><radialGradient id="radial-gradient-17" cx="58.95" cy="35.88" r="142.72" xlink:href="#radial-gradient-16"/><radialGradient id="radial-gradient-18" cx="63.51" cy="181.68" fx="-29.037157863842367" r="175.99" xlink:href="#radial-gradient-16"/><filter id="luminosity-noclip-18" x="1.87" y="46.35" width="195.99" height="232.39" filterUnits="userSpaceOnUse" color-interpolation-filters="sRGB"><feFlood flood-color="#fff" result="bg"/><feBlend in="SourceGraphic" in2="bg"/></filter><mask id="mask-18" x="1.87" y="46.35" width="195.99" height="232.39" maskUnits="userSpaceOnUse"><g mask="url(#mask)" filter="url(#luminosity-noclip-18)"><polygon points="195 46.35 195 275.22 5.02 275.22 5.02 46.35 1.87 46.35 1.87 278.74 197.86 278.74 197.86 46.35 195 46.35" fill="url(#radial-gradient)" style="mix-blend-mode:multiply"/></g></mask><radialGradient id="radial-gradient-19" cx="48.16" cy="129.62" r="196.54" gradientUnits="userSpaceOnUse"><stop offset="0" stop-color="#d4cee8"/><stop offset="0.51" stop-color="#cbc7d7"/><stop offset="1" stop-color="#c3bec6"/></radialGradient><radialGradient id="radial-gradient-20" cx="83.84" cy="2.7" r="114.9" xlink:href="#radial-gradient-16"/><radialGradient id="radial-gradient-21" cx="81.35" cy="-15.55" r="121.55" xlink:href="#radial-gradient-16"/><radialGradient id="radial-gradient-22" cx="73.05" cy="-21.37" r="134.86" xlink:href="#radial-gradient-16"/><radialGradient id="radial-gradient-24" cx="58.95" cy="35.88" r="142.72" gradientUnits="userSpaceOnUse"><stop offset="0.5" stop-color="#e2dfec"/><stop offset="0.78" stop-color="#d4cfe3"/><stop offset="1" stop-color="#c3bec6"/></radialGradient><radialGradient id="radial-gradient-25" cx="83.84" cy="2.7" r="114.9" gradientUnits="userSpaceOnUse"><stop offset="0.43" stop-color="#e6e4ee"/><stop offset="0.78" stop-color="#d4cfe3"/><stop offset="1" stop-color="#d5d2e4"/></radialGradient><radialGradient id="radial-gradient-26" cx="81.35" cy="-15.55" r="121.55" xlink:href="#radial-gradient-25"/><radialGradient id="radial-gradient-27" cx="73.05" cy="-21.37" r="134.86" xlink:href="#radial-gradient-25"/><radialGradient id="radial-gradient-28" cx="92.55" cy="43.35" r="113.67" gradientUnits="userSpaceOnUse"><stop offset="0" stop-color="#c3bec6"/><stop offset="0.34" stop-color="#d4cee8"/><stop offset="0.85" stop-color="#aea9b1"/><stop offset="1" stop-color="#c8c5ca"/></radialGradient><radialGradient id="radial-gradient-29" cx="40.98" cy="132.32" r="171.96" gradientUnits="userSpaceOnUse"><stop offset="0.18" stop-color="#fff"/><stop offset="0.65" stop-color="#d4cee8"/><stop offset="1" stop-color="#c3bec6"/></radialGradient><radialGradient id="radial-gradient-30" cx="-11.19" cy="7.85" r="227.26" gradientUnits="userSpaceOnUse"><stop offset="0" stop-color="#c3bec6"/><stop offset="0.34" stop-color="#d4cee8"/><stop offset="1" stop-color="#aea9b1"/></radialGradient><radialGradient id="radial-gradient-31" cx="167.75" cy="130.65" r="137.59" xlink:href="#radial-gradient-29"/><filter id="luminosity-noclip-19" x="7.57" y="48.22" width="182.93" height="97.36" filterUnits="userSpaceOnUse" color-interpolation-filters="sRGB"><feFlood flood-color="#fff" result="bg"/><feBlend in="SourceGraphic" in2="bg"/></filter><mask id="mask-19" x="7.57" y="48.22" width="182.93" height="97.36" maskUnits="userSpaceOnUse"><g mask="url(#mask-7)" filter="url(#luminosity-noclip-19)"><path d="M188.36,49.57c-19.88-.4-35.67-.83-59.34-1.22-6.06-.12-12.12-.17-18.19-.09-19.54.25-39,2.21-58.56,2.16-10.9,0-34.38-3.34-40.61.39C4.21,55.28,9.84,68.56,9.79,76.5,9.72,90.38,2.3,135.62,15,145.28c3.87,2.95.27-16.38,5.29-28.62,2.15-5.26,14-8.9,18.63-12.4,5.27-4,12.24-5.33,18.68-6,13.09-1.36,19.21-1.52,31.65-6,11.61-4.15,14.51-11.61,37.74-10.78,30.15,1.07,16.59-8.3-.82-9.54-12.94-.93-37.44,3.11-58.08,1.66-24.67-1.74-33.75-5.52-26.34-13,9.33-4.35,21.76-2.18,30.49-.31,13.07,2.8,23.68,2.41,34.71,2.44,12.07,0,24.15.11,36.21.05,13.07-.06,24.35-.08,36.93-4.15C194.17,54.13,190.65,49.61,188.36,49.57Z" fill="url(#radial-gradient-6)" style="mix-blend-mode:multiply"/></g></mask><radialGradient id="radial-gradient-32" cx="-0.54" cy="-140.18" r="266.38" gradientUnits="userSpaceOnUse"><stop offset="0.74" stop-color="#fff"/><stop offset="0.83" stop-color="#d4cee8"/><stop offset="1" stop-color="#c3bec6"/></radialGradient><filter id="luminosity-noclip-20" x="156.76" y="128.79" width="35.92" height="141.86" filterUnits="userSpaceOnUse" color-interpolation-filters="sRGB"><feFlood flood-color="#fff" result="bg"/><feBlend in="SourceGraphic" in2="bg"/></filter><mask id="mask-20" x="156.76" y="128.79" width="35.92" height="141.86" maskUnits="userSpaceOnUse"><g mask="url(#mask-15)" filter="url(#luminosity-noclip-20)"><path d="M190.85,128.79s2.49,117,1.66,141.87c0,0,.41-17.84-21.15-44s-17.84-41.48,2.07-57.66S190.85,128.79,190.85,128.79Z" fill="url(#radial-gradient-13)" style="mix-blend-mode:multiply"/></g></mask><radialGradient id="radial-gradient-33" cx="214.91" cy="201.38" r="49.23" gradientUnits="userSpaceOnUse"><stop offset="0.26" stop-color="#fff"/><stop offset="0.63" stop-color="#d4cee8"/><stop offset="0.96" stop-color="#c3bec6"/></radialGradient><filter id="luminosity-noclip-21" x="12.49" y="233.83" width="176.71" height="41.09" filterUnits="userSpaceOnUse" color-interpolation-filters="sRGB"><feFlood flood-color="#fff" result="bg"/><feBlend in="SourceGraphic" in2="bg"/></filter><mask id="mask-21" x="12.49" y="233.83" width="176.71" height="41.09" maskUnits="userSpaceOnUse"><g mask="url(#mask-16)" filter="url(#luminosity-noclip-21)"><path d="M12.49,269.82s8.3.84,35.67-20.73,39.82-19.09,53.93,0,11.61,19.07,33.18,10.78,34.84,10.79,53.93,11.61c0,0-19.09,4.15-73.84,3.32S12.49,269.82,12.49,269.82Z" fill="url(#radial-gradient-14)" style="mix-blend-mode:multiply"/></g></mask><radialGradient id="radial-gradient-34" cx="61.43" cy="787.5" r="549.26" gradientUnits="userSpaceOnUse"><stop offset="0.26" stop-color="#fff"/><stop offset="0.93" stop-color="#d4cee8"/><stop offset="0.99" stop-color="#c3bec6"/></radialGradient><filter id="luminosity-noclip-22" x="143.5" y="44.8" width="51.88" height="204.91" filterUnits="userSpaceOnUse" color-interpolation-filters="sRGB"><feFlood flood-color="#fff" result="bg"/><feBlend in="SourceGraphic" in2="bg"/></filter><mask id="mask-22" x="143.5" y="44.8" width="51.88" height="204.91" maskUnits="userSpaceOnUse"><g mask="url(#mask-17)" filter="url(#luminosity-noclip-22)"><path d="M192.73,44.8s3.6,169,2.4,204.91c0,0,.6-25.76-30.56-63.51s-25.76-59.92,3-83.28S192.73,44.8,192.73,44.8Z" fill="url(#radial-gradient-15)" style="mix-blend-mode:multiply"/></g></mask><radialGradient id="radial-gradient-35" cx="227.48" cy="149.65" r="71.11" xlink:href="#radial-gradient-33"/><filter id="luminosity-noclip-23" x="6.67" y="52.37" width="175.75" height="86.65" filterUnits="userSpaceOnUse" color-interpolation-filters="sRGB"><feFlood flood-color="#fff" result="bg"/><feBlend in="SourceGraphic" in2="bg"/></filter><mask id="mask-23" x="6.67" y="52.37" width="175.75" height="86.65" maskUnits="userSpaceOnUse"><g mask="url(#mask-2)" filter="url(#luminosity-noclip-23)"><path d="M12.08,57S16.64,54.13,32.82,55a291.08,291.08,0,0,0,49.77-2.07c17.42-2.08,79.23,2.9,95.82,1.65S157.25,63.26,117,62,13.74,82.75,9.59,123s-2.91-6.63-2.08-17a171.71,171.71,0,0,0,0-29.45C6.68,68.65,8.35,59.94,12.08,57Z" fill="url(#radial-gradient-2)" style="mix-blend-mode:multiply"/></g></mask><radialGradient id="radial-gradient-36" cx="108.31" cy="226.69" r="183.48" gradientUnits="userSpaceOnUse"><stop offset="0.89" stop-color="#c3bec6"/><stop offset="0.97" stop-color="#d4cee8"/><stop offset="1" stop-color="#fff"/></radialGradient><filter id="luminosity-noclip-24" x="6.85" y="83.17" width="48.27" height="189.77" filterUnits="userSpaceOnUse" color-interpolation-filters="sRGB"><feFlood flood-color="#fff" result="bg"/><feBlend in="SourceGraphic" in2="bg"/></filter><mask id="mask-24" x="6.85" y="83.17" width="48.27" height="189.77" maskUnits="userSpaceOnUse"><g mask="url(#mask-3)" filter="url(#luminosity-noclip-24)"><path d="M10,83.17s-3.52,39,15.76,55.16,40.86,17.84,22.2,44.6-24.27,24.26-16.81,42.3-10.57,12.45-13.68,28.63-7.88,19.08-7.88,19.08S3.16,114.27,10,83.17Z" fill="url(#radial-gradient-3)" style="mix-blend-mode:multiply"/></g></mask><radialGradient id="radial-gradient-37" cx="-108.3" cy="146.93" r="165.66" gradientUnits="userSpaceOnUse"><stop offset="0.26" stop-color="#fff"/><stop offset="0.8" stop-color="#d4cee8"/><stop offset="0.97" stop-color="#c3bec6"/></radialGradient><radialGradient id="radial-gradient-38" cx="88.04" cy="50.06" r="55.38" xlink:href="#radial-gradient-29"/><radialGradient id="radial-gradient-39" cx="99.4" cy="43.18" r="68.79" xlink:href="#radial-gradient-29"/><radialGradient id="radial-gradient-40" cx="99.49" cy="37.02" r="67.98" xlink:href="#radial-gradient-24"/><filter id="luminosity-noclip-25" x="5.16" y="20.53" width="186.84" height="13.38" filterUnits="userSpaceOnUse" color-interpolation-filters="sRGB"><feFlood flood-color="#fff" result="bg"/><feBlend in="SourceGraphic" in2="bg"/></filter><mask id="mask-25" x="5.16" y="20.53" width="186.84" height="13.38" maskUnits="userSpaceOnUse"><g mask="url(#mask-4)" filter="url(#luminosity-noclip-25)"><path d="M5.16,21.49l186.83-1a56.49,56.49,0,0,0-13.37,3.74c-7.78,3.11-16.18,7.77-41.69,9s-47.29-7.47-64.4-7.16S55.11,33.6,35.82,33.91A42.52,42.52,0,0,1,5.16,21.49Z" fill="url(#linear-gradient)" style="mix-blend-mode:multiply"/></g></mask><linearGradient id="linear-gradient-3" x1="98.57" y1="37.64" x2="98.57" y2="21.08" gradientUnits="userSpaceOnUse"><stop offset="0.43" stop-color="#c3bec6"/><stop offset="0.77" stop-color="#d4cee8"/><stop offset="1" stop-color="#fff"/></linearGradient><radialGradient id="radial-gradient-41" cx="99.39" cy="18.46" r="67.46" gradientUnits="userSpaceOnUse"><stop offset="0" stop-color="#c3bec6"/><stop offset="0.59" stop-color="#d4cfe3"/><stop offset="1" stop-color="#e2dfec"/></radialGradient><filter id="luminosity-noclip-26" x="6.28" y="13.22" width="188.1" height="3.07" filterUnits="userSpaceOnUse" color-interpolation-filters="sRGB"><feFlood flood-color="#fff" result="bg"/><feBlend in="SourceGraphic" in2="bg"/></filter><mask id="mask-26" x="6.28" y="13.22" width="188.1" height="3.07" maskUnits="userSpaceOnUse"><g mask="url(#mask-5)" filter="url(#luminosity-noclip-26)"><path d="M143.64,13.48c-15.29.79-30.31,0-45.61.41s-30.53.35-45.81-.16c-7.43-.25-14.86,0-22.29.19-7.81.24-15.66,0-23.46.4a.2.2,0,0,0,0,.4c7.35.93,14.89.63,22.29.69s14.86.15,22.29.39c15.28.49,30.51.66,45.8.32,14.93-.32,32.46-.51,47.39-.56,22-.08,33.69-.84,50.14-1.67C195.05,13.86,158.06,12.74,143.64,13.48Z" fill="url(#radial-gradient-4)" style="mix-blend-mode:multiply"/></g></mask><radialGradient id="radial-gradient-42" cx="85.31" cy="14.76" r="68.79" gradientTransform="translate(17.84) scale(0.97 1)" gradientUnits="userSpaceOnUse"><stop offset="0" stop-color="#fff"/><stop offset="0.4" stop-color="#d4cee8"/><stop offset="0.85" stop-color="#c3bec6"/></radialGradient><filter id="luminosity-noclip-27" x="6.28" y="8.2" width="188.1" height="1.92" filterUnits="userSpaceOnUse" color-interpolation-filters="sRGB"><feFlood flood-color="#fff" result="bg"/><feBlend in="SourceGraphic" in2="bg"/></filter><mask id="mask-27" x="6.28" y="8.2" width="188.1" height="1.92" maskUnits="userSpaceOnUse"><g mask="url(#mask-5)" filter="url(#luminosity-noclip-27)"><path d="M143.64,8.36c-15.29.49-30.31,0-45.61.26s-30.53.22-45.81-.1c-7.43-.16-14.86,0-22.29.12-7.81.14-15.66,0-23.46.24-.26,0-.24.23,0,.25,7.35.58,14.89.4,22.29.44s14.86.09,22.29.24c15.28.3,30.51.41,45.8.2,14.93-.2,32.46-.32,47.39-.35,22-.05,33.69-.52,50.14-1C195.05,8.6,158.06,7.89,143.64,8.36Z" fill="url(#radial-gradient-5)" style="mix-blend-mode:multiply"/></g></mask><radialGradient id="radial-gradient-43" cx="103.54" cy="-1042.21" fx="43.593508260582546" r="86.9" gradientTransform="translate(0 658.05) scale(1 0.63)" xlink:href="#radial-gradient-42"/><filter id="luminosity-noclip-28" x="6.07" y="1.36" width="188.1" height="1.92" filterUnits="userSpaceOnUse" color-interpolation-filters="sRGB"><feFlood flood-color="#fff" result="bg"/><feBlend in="SourceGraphic" in2="bg"/></filter><mask id="mask-28" x="6.07" y="1.36" width="188.1" height="1.92" maskUnits="userSpaceOnUse"><g mask="url(#mask-8)" filter="url(#luminosity-noclip-28)"><path d="M143.43,1.51c-15.29.5-30.31,0-45.61.26S67.29,2,52,1.67c-7.43-.16-14.86,0-22.28.12-7.82.15-15.67,0-23.47.25-.26,0-.24.23,0,.25,7.35.58,14.9.4,22.29.43s14.86.1,22.29.24c15.28.31,30.52.42,45.81.21C111.57,3,129.11,2.84,144,2.82c22.05,0,33.7-.53,50.14-1C194.85,1.75,157.85,1.05,143.43,1.51Z" fill="url(#radial-gradient-7)" style="mix-blend-mode:multiply"/></g></mask><radialGradient id="radial-gradient-44" cx="103.33" cy="-1048.85" fx="43.3856116264499" r="86.9" gradientTransform="translate(0 655.37) scale(1 0.63)" xlink:href="#radial-gradient-42"/><filter id="luminosity-noclip-29" x="28.25" y="0.81" width="166.12" height="16.67" filterUnits="userSpaceOnUse" color-interpolation-filters="sRGB"><feFlood flood-color="#fff" result="bg"/><feBlend in="SourceGraphic" in2="bg"/></filter><mask id="mask-29" x="28.25" y="0.81" width="166.12" height="16.67" maskUnits="userSpaceOnUse"><g mask="url(#mask-9)" filter="url(#luminosity-noclip-29)"><path d="M192.72,1.66s-48.53.41-51.44,1.45-23.64,5,8.51,5.6,44.59-.09,44.59-.09-42.52,2-48.74,2.58-13.89,2.49,2.07,3.32,46.67-.63,46.67-.63S132.58,15.35,127,16s-50.6.83-52.47,1.45-19.91-4.36-36.09-4.15c0,0,75.5-.41,81.92,0s10.17-2.69-4.14-3.31S28.25,8.5,28.25,8.5s76.63-1.14,80.37-1.34c6.28-.36,19.21-4,2.18-4.52-3.53-.11-79.44-.77-79.44-.77S122,.62,138.17.83,192.72,1.66,192.72,1.66Z" fill="url(#linear-gradient-2)" style="mix-blend-mode:multiply"/></g></mask><linearGradient id="linear-gradient-4" x1="110.79" y1="17.53" x2="112.24" y2="-0.1" gradientUnits="userSpaceOnUse"><stop offset="0.05" stop-color="#c3bec6"/><stop offset="0.55" stop-color="#d4cee8"/><stop offset="0.76" stop-color="#c5c0ca"/><stop offset="1" stop-color="#fff"/></linearGradient><radialGradient id="radial-gradient-45" cx="4.45" cy="277.71" r="93.97" gradientUnits="userSpaceOnUse"><stop offset="0.08" stop-color="#c3bec6"/><stop offset="0.36" stop-color="#d4cfe3"/><stop offset="1" stop-color="#fff"/></radialGradient><radialGradient id="radial-gradient-46" cx="197.34" cy="265.68" r="86.07" gradientUnits="userSpaceOnUse"><stop offset="0" stop-color="#c3bec6"/><stop offset="0.36" stop-color="#d4cfe3"/><stop offset="1" stop-color="#fff"/></radialGradient><radialGradient id="radial-gradient-47" cx="12.54" cy="275.32" r="72.7" xlink:href="#radial-gradient-45"/><radialGradient id="radial-gradient-48" cx="12.54" cy="275.32" r="72.69" xlink:href="#radial-gradient-45"/><radialGradient id="radial-gradient-49" cx="198.89" cy="272.83" r="68.74" xlink:href="#radial-gradient-45"/><radialGradient id="radial-gradient-50" cx="198.89" cy="272.83" r="68.72" xlink:href="#radial-gradient-45"/><filter id="luminosity-noclip-30" x="14.2" y="247.72" width="97.62" height="24.72" filterUnits="userSpaceOnUse" color-interpolation-filters="sRGB"><feFlood flood-color="#fff" result="bg"/><feBlend in="SourceGraphic" in2="bg"/></filter><mask id="mask-30" x="14.2" y="247.72" width="97.62" height="24.72" maskUnits="userSpaceOnUse"><g mask="url(#mask-10)" filter="url(#luminosity-noclip-30)"><path d="M111.82,271.18s-80.5,1.71-97.62,1.14c0,0,12.27.29,30.25-14.56S73,245.49,84.13,259.19,111.82,271.18,111.82,271.18Z" fill="url(#radial-gradient-8)" style="mix-blend-mode:multiply"/></g></mask><radialGradient id="radial-gradient-51" cx="-1009.22" cy="2443.11" r="33.88" gradientTransform="translate(2504.98 1296.96) rotate(90)" xlink:href="#radial-gradient-33"/><filter id="luminosity-noclip-31" x="29.66" y="170.27" width="137.2" height="83.21" filterUnits="userSpaceOnUse" color-interpolation-filters="sRGB"><feFlood flood-color="#fff" result="bg"/><feBlend in="SourceGraphic" in2="bg"/></filter><mask id="mask-31" x="29.66" y="170.27" width="137.2" height="83.21" maskUnits="userSpaceOnUse"><g mask="url(#mask-11)" filter="url(#luminosity-noclip-31)"><path d="M35.15,249.91s43.55-41.06,60.56-44,30.72-2,37.75,10.42,10.36,21.51,21.57,28.57,14.93,12,9.12-5.81-9.54-24.06-13.27-46.87-29-30.29-52.68-10.79-49,44.33-56,54.31S22.29,260.28,35.15,249.91Z" fill="url(#radial-gradient-9)" style="mix-blend-mode:multiply"/></g></mask><radialGradient id="radial-gradient-52" cx="77.87" cy="224.2" r="79.36" gradientUnits="userSpaceOnUse"><stop offset="0" stop-color="#fff"/><stop offset="0.66" stop-color="#d4cee8"/><stop offset="0.96" stop-color="#c3bec6"/></radialGradient><filter id="luminosity-noclip-32" x="21.93" y="145.78" width="113.54" height="103.23" filterUnits="userSpaceOnUse" color-interpolation-filters="sRGB"><feFlood flood-color="#fff" result="bg"/><feBlend in="SourceGraphic" in2="bg"/></filter><mask id="mask-32" x="21.93" y="145.78" width="113.54" height="103.23" maskUnits="userSpaceOnUse"><g mask="url(#mask-12)" filter="url(#luminosity-noclip-32)"><path d="M26.85,243.69c7.93-10.28,43.14-63.88,59.73-72.17s76.74-24.89,33.6-25.72-56.83,22.81-77.15,17-18.67,15.35-10.37,26.55,3.21,21.15-1.51,35.87S15.65,258.21,26.85,243.69Z" fill="url(#radial-gradient-10)" style="mix-blend-mode:multiply"/></g></mask><radialGradient id="radial-gradient-53" cx="79.53" cy="239.13" r="75.27" xlink:href="#radial-gradient-52"/><filter id="luminosity-noclip-33" x="56.76" y="143.55" width="103.93" height="76.36" filterUnits="userSpaceOnUse" color-interpolation-filters="sRGB"><feFlood flood-color="#fff" result="bg"/><feBlend in="SourceGraphic" in2="bg"/></filter><mask id="mask-33" x="56.76" y="143.55" width="103.93" height="76.36" maskUnits="userSpaceOnUse"><g mask="url(#mask-13)" filter="url(#luminosity-noclip-33)"><path d="M61.59,214.34c18.33-17.8,33.6-30.17,43.24-34.84s21.16-1.24,35.47-12.44,15.24-16.49,18-22.71-2.5,25.82,0,36.4,7.32,35.49-13.14,26.76-52.82-9.65-69.31.93S50.7,224.92,61.59,214.34Z" fill="url(#radial-gradient-11)" style="mix-blend-mode:multiply"/></g></mask><radialGradient id="radial-gradient-54" cx="116.03" cy="194.75" r="39.82" gradientUnits="userSpaceOnUse"><stop offset="0" stop-color="#fff"/><stop offset="0.63" stop-color="#d4cee8"/><stop offset="0.96" stop-color="#c3bec6"/></radialGradient><filter id="luminosity-noclip-34" x="34.91" y="221.84" width="104.38" height="46.25" filterUnits="userSpaceOnUse" color-interpolation-filters="sRGB"><feFlood flood-color="#fff" result="bg"/><feBlend in="SourceGraphic" in2="bg"/></filter><mask id="mask-34" x="34.91" y="221.84" width="104.38" height="46.25" maskUnits="userSpaceOnUse"><g mask="url(#mask-14)" filter="url(#luminosity-noclip-34)"><path d="M51.32,251.58c15.49-8.48,43.31-20.39,31.2-20.36s2.4-12.42,22.31-8.68,25.72,20.32,31.53,32.35,2.07,17-3.32,10-15.75-14.32-30.27-10.06-37.76,15-29.88,3.42-2.07-5.39-20.32.83S24.78,266.09,51.32,251.58Z" fill="url(#radial-gradient-12)" style="mix-blend-mode:multiply"/></g></mask><radialGradient id="radial-gradient-55" cx="96.54" cy="241.62" r="32.67" gradientUnits="userSpaceOnUse"><stop offset="0" stop-color="#fff"/><stop offset="0.24" stop-color="#d4cee8"/><stop offset="0.96" stop-color="#c3bec6"/></radialGradient></defs><g style="isolation:isolate"><g id="Layer_2" data-name="Layer 2"><g id="Layer_1-2" data-name="Layer 1"><rect x="1.87" y="18.35" width="195.99" height="18.67" fill="url(#radial-gradient-16)" style="mix-blend-mode:multiply"/><rect x="1.87" y="37.02" width="195.99" height="9.33" fill="url(#radial-gradient-17)" style="mix-blend-mode:multiply"/><rect x="1.87" y="46.35" width="195.99" height="232.39" fill="url(#radial-gradient-18)"/><g mask="url(#mask-18)"><polygon points="195 46.35 195 275.22 5.02 275.22 5.02 46.35 1.87 46.35 1.87 278.74 197.86 278.74 197.86 46.35 195 46.35" fill="url(#radial-gradient-19)" style="mix-blend-mode:multiply"/></g><rect x="1.87" y="12.44" width="195.99" height="5.91" fill="url(#radial-gradient-20)" style="mix-blend-mode:multiply"/><rect x="1.87" y="7.16" width="195.99" height="5.29" fill="url(#radial-gradient-21)" style="mix-blend-mode:multiply"/><rect x="1.87" width="195.99" height="7.16" fill="url(#radial-gradient-22)" style="mix-blend-mode:multiply"/><path d="M1.87,18.35V37h196V18.35ZM190,34.21a1.45,1.45,0,0,1-1.09.37,1.29,1.29,0,0,1-1.19.68H17a1.22,1.22,0,0,1-.74.21c-4.26-.06-8.89-1.18-11-5.26a11,11,0,0,1-.06-8.72,1.44,1.44,0,0,1,1.32-2H184.84a1.35,1.35,0,0,1,1.39,1.35C191.12,23.85,195.61,29.41,190,34.21Z" opacity="0.4" fill="url(#radial-gradient-16)" style="mix-blend-mode:multiply"/><path d="M1.87,37v9.33h196V37Zm191.48,3.64H5.65a1.46,1.46,0,0,1,0-2.92h187.7A1.46,1.46,0,0,1,193.35,40.66Z" opacity="0.7" fill="url(#radial-gradient-24)" style="mix-blend-mode:multiply"/><path d="M1.87,12.44v5.91h196V12.44Zm192.72,3.74H5.44a1.46,1.46,0,0,1,0-2.92H194.59A1.46,1.46,0,0,1,194.59,16.18Z" opacity="0.5" fill="url(#radial-gradient-25)" style="mix-blend-mode:multiply"/><path d="M1.87,7.16v5.28h196V7.16Zm193.55,3.22H5.65a1.46,1.46,0,0,1,0-2.92H195.42A1.46,1.46,0,0,1,195.42,10.38Z" opacity="0.5" fill="url(#radial-gradient-26)" style="mix-blend-mode:multiply"/><path d="M1.87,0V7.16h196V0ZM193.79,5H6.06C3.3,5,3.3.76,6.06.76H193.79C196.54.76,196.54,5,193.79,5Z" opacity="0.5" fill="url(#radial-gradient-27)" style="mix-blend-mode:multiply"/><path d="M199.73,44c0,1.29-.67,2.33-1.49,2.33H1.49C.67,46.35,0,45.31,0,44H0c0-1.29.67-2.33,1.49-2.33H198.24c.82,0,1.49,1,1.49,2.33Z" fill="url(#radial-gradient-28)"/><polygon points="5.02 52.06 5.02 275.22 157.25 276.05 7.1 273.56 5.02 52.06" fill="url(#radial-gradient-29)" style="mix-blend-mode:screen"/><path d="M2.74,64.5,1.87,46.35h196l-.16,18.77L196.76,48s-1.34-1.14-1.76,3.42,0,43.76,0,43.76-1.76-41.68-2.17-44.48-71-2.45-82-2.45-98.55-.35-101.66-.35S5.12,74,5.12,74L4.61,47.91S2.43,45.52,2.74,64.5Z" fill="url(#radial-gradient-30)" style="mix-blend-mode:multiply"/><polygon points="163.06 50.3 194.17 49.46 195 275.22 159.33 276.05 193.97 273.97 192.1 51.12 163.06 50.3" fill="url(#radial-gradient-31)" style="mix-blend-mode:screen"/><g mask="url(#mask-19)"><path d="M188.36,49.57c-19.88-.4-35.67-.83-59.34-1.22-6.06-.12-12.12-.17-18.19-.09-19.54.25-39,2.21-58.56,2.16-10.9,0-34.38-3.34-40.61.39C4.21,55.28,9.84,68.56,9.79,76.5,9.72,90.38,2.3,135.62,15,145.28c3.87,2.95.27-16.38,5.29-28.62,2.15-5.26,14-8.9,18.63-12.4,5.27-4,12.24-5.33,18.68-6,13.09-1.36,19.21-1.52,31.65-6,11.61-4.15,14.51-11.61,37.74-10.78,30.15,1.07,16.59-8.3-.82-9.54-12.94-.93-37.44,3.11-58.08,1.66-24.67-1.74-33.75-5.52-26.34-13,9.33-4.35,21.76-2.18,30.49-.31,13.07,2.8,23.68,2.41,34.71,2.44,12.07,0,24.15.11,36.21.05,13.07-.06,24.35-.08,36.93-4.15C194.17,54.13,190.65,49.61,188.36,49.57Z" opacity="0.4" fill="url(#radial-gradient-32)" style="mix-blend-mode:screen"/></g><g mask="url(#mask-20)"><path d="M190.85,128.79s2.49,117,1.66,141.87c0,0,.41-17.84-21.15-44s-17.84-41.48,2.07-57.66S190.85,128.79,190.85,128.79Z" opacity="0.8" fill="url(#radial-gradient-33)" style="mix-blend-mode:screen"/></g><g mask="url(#mask-21)"><path d="M12.49,269.82s8.3.84,35.67-20.73,39.82-19.09,53.93,0,11.61,19.07,33.18,10.78,34.84,10.79,53.93,11.61c0,0-19.09,4.15-73.84,3.32S12.49,269.82,12.49,269.82Z" opacity="0.8" fill="url(#radial-gradient-34)" style="mix-blend-mode:screen"/></g><g mask="url(#mask-22)"><path d="M192.73,44.8s3.6,169,2.4,204.91c0,0,.6-25.76-30.56-63.51s-25.76-59.92,3-83.28S192.73,44.8,192.73,44.8Z" opacity="0.8" fill="url(#radial-gradient-35)" style="mix-blend-mode:screen"/></g><path d="M17.78,271s60.35.63,72.49.32,64.39,4.66,97.68.31c0,0-31.74,6.22-97.37,2.49S17.78,271,17.78,271Z" fill="#fff"/><g mask="url(#mask-23)"><path d="M12.08,57S16.64,54.13,32.82,55a291.08,291.08,0,0,0,49.77-2.07c17.42-2.08,79.23,2.9,95.82,1.65S157.25,63.26,117,62,13.74,82.75,9.59,123s-2.91-6.63-2.08-17a171.71,171.71,0,0,0,0-29.45C6.68,68.65,8.35,59.94,12.08,57Z" fill="url(#radial-gradient-36)" style="mix-blend-mode:screen"/></g><g mask="url(#mask-24)"><path d="M10,83.17s-3.52,39,15.76,55.16,40.86,17.84,22.2,44.6-24.27,24.26-16.81,42.3-10.57,12.45-13.68,28.63-7.88,19.08-7.88,19.08S3.16,114.27,10,83.17Z" opacity="0.8" fill="url(#radial-gradient-37)" style="mix-blend-mode:screen"/></g><path d="M166.17,51.16c-28.3-3.35-57.19-3-85.63-1.81-6.66.29-13.35.94-20,.8-5.94-.13-11.87-.87-17.78-1.44-11-1.07-22.6-1.81-32.86,3-.25.12-.07.54.18.45,11-4.15,23.31-2.63,34.71-1.47,5.56.56,11.1,1.18,16.69,1.31,6.74.15,13.55-.59,20.29-.88,28.11-1.21,56.31-.66,84.42.35C166.39,51.5,166.38,51.19,166.17,51.16Z" fill="url(#radial-gradient-38)" style="mix-blend-mode:screen"/><path d="M144.19,41.89c-15.81.79-31.35,0-47.17.41s-31.58.35-47.37-.16c-7.69-.25-15.38,0-23.06.2-8.08.23-16.19,0-24.26.39a.2.2,0,0,0,0,.4c7.6.93,15.4.63,23,.7s15.37.14,23.05.38c15.81.49,31.56.66,47.37.33,15.44-.33,33.57-.52,49-.57,22.8-.08,34.84-.83,51.85-1.66C197.36,42.28,159.1,41.15,144.19,41.89Z" fill="url(#radial-gradient-39)" style="mix-blend-mode:screen"/><g style="mix-blend-mode:multiply"><path d="M3.36,37.06l8.27-.2,9.48-.16,12.29-.12c4.51,0,9.39-.07,14.56,0s10.6.12,16.24.18,11.45.12,17.36.13,11.92-.08,17.93-.17l17.93-.22,17.37-.12H151c5.16,0,10.05.05,14.55.1l21.78.25,8.26.17V37l-8.26.19-21.78.3c-4.5.06-9.38.13-14.55.13l-16.24,0-17.37-.08-17.93-.19c-6-.08-12-.12-17.93-.13s-11.73.05-17.36.16-11.08.21-16.24.22-10.05,0-14.56,0l-12.29-.09-9.48-.13-8.27-.19Z" fill="url(#radial-gradient-40)"/></g><g mask="url(#mask-25)"><path d="M5.16,21.49l186.83-1a56.49,56.49,0,0,0-13.37,3.74c-7.78,3.11-16.18,7.77-41.69,9s-47.29-7.47-64.4-7.16S55.11,33.6,35.82,33.91A42.52,42.52,0,0,1,5.16,21.49Z" fill="url(#linear-gradient-3)" style="mix-blend-mode:screen"/></g><path d="M4,18.46l29.81-.35,30.56-.19,35-.08,35,.08,30.56.19,29.81.35L165,18.81,134.42,19l-35,.08-35-.08L33.8,18.8Z" opacity="0.7" fill="url(#radial-gradient-41)" style="mix-blend-mode:multiply"/><g mask="url(#mask-26)"><path d="M143.64,13.48c-15.29.79-30.31,0-45.61.41s-30.53.35-45.81-.16c-7.43-.25-14.86,0-22.29.19-7.81.24-15.66,0-23.46.4a.2.2,0,0,0,0,.4c7.35.93,14.89.63,22.29.69s14.86.15,22.29.39c15.28.49,30.51.66,45.8.32,14.93-.32,32.46-.51,47.39-.56,22-.08,33.69-.84,50.14-1.67C195.05,13.86,158.06,12.74,143.64,13.48Z" fill="url(#radial-gradient-42)" style="mix-blend-mode:screen"/></g><g mask="url(#mask-27)"><path d="M143.64,8.36c-15.29.49-30.31,0-45.61.26s-30.53.22-45.81-.1c-7.43-.16-14.86,0-22.29.12-7.81.14-15.66,0-23.46.24-.26,0-.24.23,0,.25,7.35.58,14.89.4,22.29.44s14.86.09,22.29.24c15.28.3,30.51.41,45.8.2,14.93-.2,32.46-.32,47.39-.35,22-.05,33.69-.52,50.14-1C195.05,8.6,158.06,7.89,143.64,8.36Z" fill="url(#radial-gradient-43)" style="mix-blend-mode:screen"/></g><g mask="url(#mask-28)"><path d="M143.43,1.51c-15.29.5-30.31,0-45.61.26S67.29,2,52,1.67c-7.43-.16-14.86,0-22.28.12-7.82.15-15.67,0-23.47.25-.26,0-.24.23,0,.25,7.35.58,14.9.4,22.29.43s14.86.1,22.29.24c15.28.31,30.52.42,45.81.21C111.57,3,129.11,2.84,144,2.82c22.05,0,33.7-.53,50.14-1C194.85,1.75,157.85,1.05,143.43,1.51Z" fill="url(#radial-gradient-44)" style="mix-blend-mode:screen"/></g><g mask="url(#mask-29)"><path d="M192.72,1.66s-48.53.41-51.44,1.45-23.64,5,8.51,5.6,44.59-.09,44.59-.09-42.52,2-48.74,2.58-13.89,2.49,2.07,3.32,46.67-.63,46.67-.63S132.58,15.35,127,16s-50.6.83-52.47,1.45-19.91-4.36-36.09-4.15c0,0,75.5-.41,81.92,0s10.17-2.69-4.14-3.31S28.25,8.5,28.25,8.5s76.63-1.14,80.37-1.34c6.28-.36,19.21-4,2.18-4.52-3.53-.11-79.44-.77-79.44-.77S122,.62,138.17.83,192.72,1.66,192.72,1.66Z" fill="url(#linear-gradient-4)" style="mix-blend-mode:screen"/></g><path d="M3.62,109.3s5,67.19,6.64,83,2.9,13.69,10.37-7.89S10.26,249.08,9.85,254.89s17-36.5,30.69-59.73-16.46,46.16,15.83,3.59-33.67,59.05-36.16,64-.94,1.36,44.13-22.13-17.16,15.49,26,1.81-33.6,19.49-42.73,23.64,34.43,4.57,71.35,6.64L5,275.22Z" opacity="0.5" fill="url(#radial-gradient-45)" style="mix-blend-mode:multiply"/><path d="M192.77,130.87,194,274l-67.56,1.66s46-3.73,52.27-4.15S116,235,115.2,234.57s46.46,19.91,55.59,21.56-13.69-56-13.69-56,18.67,31.52,23.64,39,9.55,6.22,6.22-5.39-20.32-69.27-20.32-69.27S182,200.55,185.3,209.68,193.6,140.82,192.77,130.87Z" opacity="0.5" fill="url(#radial-gradient-46)" style="mix-blend-mode:multiply"/><polygon points="22.5 180.75 8.5 272.52 6.63 182.3 9.43 251.37 22.5 180.75" opacity="0.8" fill="url(#radial-gradient-47)" style="mix-blend-mode:multiply"/><path d="M41.16,199.1s-26.44,47.6-27.68,53.2-4.68,19,1.55,15.87,40.13-20.85,40.13-20.85-36.08,16.8-38.27,16.8,2.81-15.87,7.78-27.69S41.16,199.1,41.16,199.1Z" opacity="0.8" fill="url(#radial-gradient-48)" style="mix-blend-mode:multiply"/><path d="M134.8,242.66s48.53,28.3,50.4,29.55,6.22,2.18,7.16,1.87S193,266,193,266L164,207.5s25.83,58.49,25.83,61.29S134.8,242.66,134.8,242.66Z" opacity="0.8" fill="url(#radial-gradient-49)" style="mix-blend-mode:multiply"/><path d="M170.27,180.75s17.11,67.5,19,73.11,4.67,13.06,5,8.08,0-65.95,0-65.95-1.24,41.38-2.49,47S170.27,180.75,170.27,180.75Z" opacity="0.8" fill="url(#radial-gradient-50)" style="mix-blend-mode:multiply"/><g mask="url(#mask-30)"><path d="M111.82,271.18s-80.5,1.71-97.62,1.14c0,0,12.27.29,30.25-14.56S73,245.49,84.13,259.19,111.82,271.18,111.82,271.18Z" opacity="0.8" fill="url(#radial-gradient-51)" style="mix-blend-mode:screen"/></g><g mask="url(#mask-31)"><path d="M35.15,249.91s43.55-41.06,60.56-44,30.72-2,37.75,10.42,10.36,21.51,21.57,28.57,14.93,12,9.12-5.81-9.54-24.06-13.27-46.87-29-30.29-52.68-10.79-49,44.33-56,54.31S22.29,260.28,35.15,249.91Z" opacity="0.4" fill="url(#radial-gradient-52)" style="mix-blend-mode:screen"/></g><g mask="url(#mask-32)"><path d="M26.85,243.69c7.93-10.28,43.14-63.88,59.73-72.17s76.74-24.89,33.6-25.72-56.83,22.81-77.15,17-18.67,15.35-10.37,26.55,3.21,21.15-1.51,35.87S15.65,258.21,26.85,243.69Z" opacity="0.8" fill="url(#radial-gradient-53)" style="mix-blend-mode:screen"/></g><g mask="url(#mask-33)"><path d="M61.59,214.34c18.33-17.8,33.6-30.17,43.24-34.84s21.16-1.24,35.47-12.44,15.24-16.49,18-22.71-2.5,25.82,0,36.4,7.32,35.49-13.14,26.76-52.82-9.65-69.31.93S50.7,224.92,61.59,214.34Z" opacity="0.4" fill="url(#radial-gradient-54)" style="mix-blend-mode:screen"/></g><g mask="url(#mask-34)"><path d="M51.32,251.58c15.49-8.48,43.31-20.39,31.2-20.36s2.4-12.42,22.31-8.68,25.72,20.32,31.53,32.35,2.07,17-3.32,10-15.75-14.32-30.27-10.06-37.76,15-29.88,3.42-2.07-5.39-20.32.83S24.78,266.09,51.32,251.58Z" opacity="0.8" fill="url(#radial-gradient-55)" style="mix-blend-mode:screen"/></g><path d="M183.58,168.63a5.72,5.72,0,0,1,3.93,5.52l-1.75,41.75-45.16,6,1.59-43.35c.09-2-1.06-3.64-3.47-4.82Z" fill="#f9bd65" fill-rule="evenodd"/><path d="M126.68,172.15l-2.88,38.5a8.54,8.54,0,0,0,3.09,6.76,34.37,34.37,0,0,0,13.71,4.49l1.59-43.35c.09-2-1.06-3.64-3.47-4.82L131,169.49C130.08,169,128.57,170,126.68,172.15Z" fill="#e2a24c" fill-rule="evenodd"/><path d="M152.93,220.27l-1,12.29c-.12,2.53,4.73,3.47,5.78.65l.88-13.69Z" fill="#f4ede3" fill-rule="evenodd"/><path d="M166.42,218.47l-1,12.3c-.12,2.53,4.72,3.47,5.78.66l.87-13.71Z" fill="#f4ede3" fill-rule="evenodd"/><path d="M64.2,196.83l16.29-3.51,19.63.8a45.28,45.28,0,0,1-.28,19.49l-20-.15L65.3,210.21l-2.55-1.37-7.75-1a2.94,2.94,0,0,1-2.13-1.72l.4-7.22a8.82,8.82,0,0,1,4.5-1.6Z" fill="#f9bd65" fill-rule="evenodd"/><rect x="105.46" y="198.78" width="2.18" height="2.51" transform="translate(-95.08 303.55) rotate(-89.13)" fill="#876e52"/><rect x="105.45" y="206.46" width="2.18" height="2.51" transform="matrix(0.02, -1, 1, 0.02, -102.87, 310.88)" fill="#876e52"/><path d="M55.12,204.18c-.23-.15-82.79-51.05-16.94-72l14.92-4.71c35-11,60.24-19,66.81-27.76,3.12-4.19,1.51-8.8-6-14.43-25.59-19.11-63-19.93-63.16-19.94l.07-2.66c.11,0,38.4.85,64.69,20.47,9,6.75,10.74,12.57,6.57,18.16C115,110.8,89.37,118.85,53.89,130L39,134.72C-21.28,153.89,55.44,200.9,55.66,201,56.48,201.49,56.51,203.92,55.12,204.18Z" fill="#d7b383"/><polygon points="50.67 61.18 52.16 66.26 40.59 73.16 21.43 77.71 17.62 64.92 38.21 59.58 50.67 61.18" fill="#f9bd65" fill-rule="evenodd"/><polygon points="20.6 74.82 14.5 76.32 12.34 68.7 19.36 67 21.57 74.59 20.6 74.82" fill="#f2e8da" fill-rule="evenodd"/><path d="M100.61,196.71a45.64,45.64,0,0,1-.34,14.65l11.8.48.81-14.41-12.27-.72Zm7.17,4.43-2.5,0,0-2.17,2.5,0,0,2.17Zm-2.47,5.46,2.5,0,0,2.18-2.51,0Z" fill="#f2e8da" fill-rule="evenodd"/><path d="M138.72,173.73l44.86-5.1c-6.87-3-12.17-4.72-14.68-4.3l-38.31,3.49c-1.6.34-2.81,2.13-3.91,4.33,1.89-2.11,3.4-3.16,4.35-2.66Z" fill="#cb8f46" fill-rule="evenodd"/><polygon points="133.08 199.69 132.91 214.62 126.94 212.38 128.05 197.5 133.08 199.69" fill="#9b7349" fill-rule="evenodd"/></g></g></g></svg>