<svg xmlns="http://www.w3.org/2000/svg" xmlns:xlink="http://www.w3.org/1999/xlink" viewBox="0 0 168.64 165.33"><defs><filter id="luminosity-noclip" x="0" y="-8106.89" width="149.84" height="32766" filterUnits="userSpaceOnUse" color-interpolation-filters="sRGB"><feFlood flood-color="#fff" result="bg"/><feBlend in="SourceGraphic" in2="bg"/></filter><mask id="mask" x="0" y="-8106.89" width="149.84" height="32766" maskUnits="userSpaceOnUse"><g filter="url(#luminosity-noclip)"/></mask><radialGradient id="radial-gradient" cx="68.83" cy="73.18" r="97.27" gradientTransform="matrix(0.57, 0.82, -0.82, 0.57, 94.1, -42.79)" gradientUnits="userSpaceOnUse"><stop offset="0" stop-color="#fff"/><stop offset="0.51" stop-color="#4d4d4d"/><stop offset="1" stop-color="#fff"/></radialGradient><filter id="luminosity-noclip-2" x="58.16" y="-8106.89" width="83.92" height="32766" filterUnits="userSpaceOnUse" color-interpolation-filters="sRGB"><feFlood flood-color="#fff" result="bg"/><feBlend in="SourceGraphic" in2="bg"/></filter><mask id="mask-2" x="58.16" y="-8106.89" width="83.92" height="32766" maskUnits="userSpaceOnUse"><g filter="url(#luminosity-noclip-2)"/></mask><radialGradient id="radial-gradient-2" cx="98.59" cy="121.21" r="90.8" gradientTransform="matrix(0.57, 0.82, -0.82, 0.57, 94.1, -42.79)" gradientUnits="userSpaceOnUse"><stop offset="0.89"/><stop offset="0.97" stop-color="#fff"/><stop offset="1" stop-color="#fff"/></radialGradient><filter id="luminosity-noclip-3" x="4.54" y="-8106.89" width="77.07" height="32766" filterUnits="userSpaceOnUse" color-interpolation-filters="sRGB"><feFlood flood-color="#fff" result="bg"/><feBlend in="SourceGraphic" in2="bg"/></filter><mask id="mask-3" x="4.54" y="-8106.89" width="77.07" height="32766" maskUnits="userSpaceOnUse"><g filter="url(#luminosity-noclip-3)"/></mask><radialGradient id="radial-gradient-3" cx="-8.61" cy="81.74" r="81.99" gradientTransform="matrix(0.57, 0.82, -0.82, 0.57, 94.1, -42.79)" gradientUnits="userSpaceOnUse"><stop offset="0.26" stop-color="#fff"/><stop offset="0.8" stop-color="#fff"/><stop offset="0.97"/></radialGradient><filter id="luminosity-noclip-4" x="104.93" y="-8106.89" width="53.72" height="32766" filterUnits="userSpaceOnUse" color-interpolation-filters="sRGB"><feFlood flood-color="#fff" result="bg"/><feBlend in="SourceGraphic" in2="bg"/></filter><mask id="mask-4" x="104.93" y="-8106.89" width="53.72" height="32766" maskUnits="userSpaceOnUse"><g filter="url(#luminosity-noclip-4)"/></mask><linearGradient id="linear-gradient" x1="93.77" y1="27.65" x2="93.77" y2="19.46" gradientTransform="matrix(0.57, 0.82, -0.82, 0.57, 94.1, -42.79)" gradientUnits="userSpaceOnUse"><stop offset="0.43"/><stop offset="0.77" stop-color="#fff"/><stop offset="1" stop-color="#fff"/></linearGradient><filter id="luminosity-noclip-5" x="108.35" y="-8106.89" width="53.66" height="32766" filterUnits="userSpaceOnUse" color-interpolation-filters="sRGB"><feFlood flood-color="#fff" result="bg"/><feBlend in="SourceGraphic" in2="bg"/></filter><mask id="mask-5" x="108.35" y="-8106.89" width="53.66" height="32766" maskUnits="userSpaceOnUse"><g filter="url(#luminosity-noclip-5)"/></mask><radialGradient id="radial-gradient-4" cx="75.55" cy="16.33" r="34.04" gradientTransform="translate(106.48 -25.1) rotate(55.02) scale(0.97 1)" gradientUnits="userSpaceOnUse"><stop offset="0" stop-color="#fff"/><stop offset="0.4" stop-color="#fff"/><stop offset="0.85" stop-color="#333"/></radialGradient><filter id="luminosity-noclip-6" x="110.61" y="-8106.89" width="53.54" height="32766" filterUnits="userSpaceOnUse" color-interpolation-filters="sRGB"><feFlood flood-color="#fff" result="bg"/><feBlend in="SourceGraphic" in2="bg"/></filter><mask id="mask-6" x="110.61" y="-8106.89" width="53.54" height="32766" maskUnits="userSpaceOnUse"><g filter="url(#luminosity-noclip-6)"/></mask><radialGradient id="radial-gradient-5" cx="96.23" cy="-898.72" fx="66.56451545848557" r="43.01" gradientTransform="matrix(0.57, 0.82, -0.51, 0.36, -376.23, 286.29)" xlink:href="#radial-gradient-4"/><filter id="luminosity-noclip-7" x="57.84" y="-8106.89" width="88.18" height="32766" filterUnits="userSpaceOnUse" color-interpolation-filters="sRGB"><feFlood flood-color="#fff" result="bg"/><feBlend in="SourceGraphic" in2="bg"/></filter><mask id="mask-7" x="57.84" y="-8106.89" width="88.18" height="32766" maskUnits="userSpaceOnUse"><g filter="url(#luminosity-noclip-7)"/></mask><radialGradient id="radial-gradient-6" cx="44.72" cy="-60.35" r="131.83" gradientTransform="matrix(0.57, 0.82, -0.82, 0.57, 94.1, -42.79)" gradientUnits="userSpaceOnUse"><stop offset="0.74" stop-color="#fff"/><stop offset="0.83" stop-color="#fff"/><stop offset="1"/></radialGradient><filter id="luminosity-noclip-8" x="113.33" y="-8106.89" width="53.54" height="32766" filterUnits="userSpaceOnUse" color-interpolation-filters="sRGB"><feFlood flood-color="#fff" result="bg"/><feBlend in="SourceGraphic" in2="bg"/></filter><mask id="mask-8" x="113.33" y="-8106.89" width="53.54" height="32766" maskUnits="userSpaceOnUse"><g filter="url(#luminosity-noclip-8)"/></mask><radialGradient id="radial-gradient-7" cx="96.13" cy="-899.84" fx="66.46162754787761" r="43.01" gradientTransform="matrix(0.57, 0.82, -0.51, 0.36, -374.03, 284.75)" xlink:href="#radial-gradient-4"/><filter id="luminosity-noclip-9" x="117.07" y="-8106.89" width="49.44" height="32766" filterUnits="userSpaceOnUse" color-interpolation-filters="sRGB"><feFlood flood-color="#fff" result="bg"/><feBlend in="SourceGraphic" in2="bg"/></filter><mask id="mask-9" x="117.07" y="-8106.89" width="49.44" height="32766" maskUnits="userSpaceOnUse"><g filter="url(#luminosity-noclip-9)"/></mask><linearGradient id="linear-gradient-2" x1="99.82" y1="17.7" x2="100.54" y2="8.98" gradientTransform="matrix(0.57, 0.82, -0.82, 0.57, 94.1, -42.79)" gradientUnits="userSpaceOnUse"><stop offset="0.05"/><stop offset="0.55" stop-color="#fff"/><stop offset="0.76" stop-color="#1e1e1e"/><stop offset="1" stop-color="#fff"/></linearGradient><filter id="luminosity-noclip-10" x="6.1" y="-8106.89" width="28.16" height="32766" filterUnits="userSpaceOnUse" color-interpolation-filters="sRGB"><feFlood flood-color="#fff" result="bg"/><feBlend in="SourceGraphic" in2="bg"/></filter><mask id="mask-10" x="6.1" y="-8106.89" width="28.16" height="32766" maskUnits="userSpaceOnUse"><g filter="url(#luminosity-noclip-10)"/></mask><radialGradient id="radial-gradient-8" cx="-808.14" cy="2318.61" r="16.77" gradientTransform="matrix(-0.82, 0.57, -0.57, -0.82, 680.46, 2469.02)" gradientUnits="userSpaceOnUse"><stop offset="0.26" stop-color="#fff"/><stop offset="0.63" stop-color="#fff"/><stop offset="0.96"/></radialGradient><filter id="luminosity-noclip-11" x="18.16" y="-8106.89" width="63.33" height="32766" filterUnits="userSpaceOnUse" color-interpolation-filters="sRGB"><feFlood flood-color="#fff" result="bg"/><feBlend in="SourceGraphic" in2="bg"/></filter><mask id="mask-11" x="18.16" y="-8106.89" width="63.33" height="32766" maskUnits="userSpaceOnUse"><g filter="url(#luminosity-noclip-11)"/></mask><radialGradient id="radial-gradient-9" cx="83.53" cy="119.98" r="39.28" gradientTransform="matrix(0.57, 0.82, -0.82, 0.57, 94.1, -42.79)" gradientUnits="userSpaceOnUse"><stop offset="0" stop-color="#fff"/><stop offset="0.66" stop-color="#fff"/><stop offset="0.96"/></radialGradient><filter id="luminosity-noclip-12" x="17.78" y="-8106.89" width="72.97" height="32766" filterUnits="userSpaceOnUse" color-interpolation-filters="sRGB"><feFlood flood-color="#fff" result="bg"/><feBlend in="SourceGraphic" in2="bg"/></filter><mask id="mask-12" x="17.78" y="-8106.89" width="72.97" height="32766" maskUnits="userSpaceOnUse"><g filter="url(#luminosity-noclip-12)"/></mask><radialGradient id="radial-gradient-10" cx="84.35" cy="127.37" r="37.25" xlink:href="#radial-gradient-9"/><filter id="luminosity-noclip-13" x="39.46" y="-8106.89" width="59.92" height="32766" filterUnits="userSpaceOnUse" color-interpolation-filters="sRGB"><feFlood flood-color="#fff" result="bg"/><feBlend in="SourceGraphic" in2="bg"/></filter><mask id="mask-13" x="39.46" y="-8106.89" width="59.92" height="32766" maskUnits="userSpaceOnUse"><g filter="url(#luminosity-noclip-13)"/></mask><radialGradient id="radial-gradient-11" cx="102.42" cy="105.4" r="19.71" gradientTransform="matrix(0.57, 0.82, -0.82, 0.57, 94.1, -42.79)" gradientUnits="userSpaceOnUse"><stop offset="0" stop-color="#fff"/><stop offset="0.63" stop-color="#fff"/><stop offset="0.96"/></radialGradient><filter id="luminosity-noclip-14" x="15.79" y="-8106.89" width="37.76" height="32766" filterUnits="userSpaceOnUse" color-interpolation-filters="sRGB"><feFlood flood-color="#fff" result="bg"/><feBlend in="SourceGraphic" in2="bg"/></filter><mask id="mask-14" x="15.79" y="-8106.89" width="37.76" height="32766" maskUnits="userSpaceOnUse"><g filter="url(#luminosity-noclip-14)"/></mask><radialGradient id="radial-gradient-12" cx="92.77" cy="128.6" r="16.17" gradientTransform="matrix(0.57, 0.82, -0.82, 0.57, 94.1, -42.79)" gradientUnits="userSpaceOnUse"><stop offset="0" stop-color="#fff"/><stop offset="0.24" stop-color="#fff"/><stop offset="0.96"/></radialGradient><filter id="luminosity-noclip-15" x="57.37" y="-8106.89" width="57.05" height="32766" filterUnits="userSpaceOnUse" color-interpolation-filters="sRGB"><feFlood flood-color="#fff" result="bg"/><feBlend in="SourceGraphic" in2="bg"/></filter><mask id="mask-15" x="57.37" y="-8106.89" width="57.05" height="32766" maskUnits="userSpaceOnUse"><g filter="url(#luminosity-noclip-15)"/></mask><radialGradient id="radial-gradient-13" cx="151.35" cy="108.69" r="24.36" gradientTransform="matrix(0.57, 0.82, -0.82, 0.57, 94.1, -42.79)" xlink:href="#radial-gradient-8"/><filter id="luminosity-noclip-16" x="6.63" y="-8106.89" width="49.46" height="32766" filterUnits="userSpaceOnUse" color-interpolation-filters="sRGB"><feFlood flood-color="#fff" result="bg"/><feBlend in="SourceGraphic" in2="bg"/></filter><mask id="mask-16" x="6.63" y="-8106.89" width="49.46" height="32766" maskUnits="userSpaceOnUse"><g filter="url(#luminosity-noclip-16)"/></mask><radialGradient id="radial-gradient-14" cx="75.39" cy="398.76" r="271.83" gradientTransform="matrix(0.57, 0.82, -0.82, 0.57, 94.1, -42.79)" gradientUnits="userSpaceOnUse"><stop offset="0.26" stop-color="#fff"/><stop offset="0.93" stop-color="#fff"/><stop offset="0.99"/></radialGradient><filter id="luminosity-noclip-17" x="66.6" y="-8106.89" width="82.41" height="32766" filterUnits="userSpaceOnUse" color-interpolation-filters="sRGB"><feFlood flood-color="#fff" result="bg"/><feBlend in="SourceGraphic" in2="bg"/></filter><mask id="mask-17" x="66.6" y="-8106.89" width="82.41" height="32766" maskUnits="userSpaceOnUse"><g filter="url(#luminosity-noclip-17)"/></mask><radialGradient id="radial-gradient-15" cx="157.57" cy="83.09" r="35.19" gradientTransform="matrix(0.57, 0.82, -0.82, 0.57, 94.1, -42.79)" xlink:href="#radial-gradient-8"/><radialGradient id="radial-gradient-16" cx="78.89" cy="7.28" r="65.5" gradientTransform="translate(152.33 -46.82) rotate(90)" gradientUnits="userSpaceOnUse"><stop offset="0" stop-color="#fff"/><stop offset="0.78" stop-color="#d5cfe3"/><stop offset="1" stop-color="#c3bec6"/></radialGradient><radialGradient id="radial-gradient-17" cx="74.16" cy="26.78" r="70.63" gradientTransform="translate(153.58 -42.85) rotate(90)" xlink:href="#radial-gradient-16"/><radialGradient id="radial-gradient-18" cx="76.42" cy="98.94" fx="30.61964547714401" r="87.1" gradientTransform="translate(164.39 -8.56) rotate(90)" xlink:href="#radial-gradient-16"/><filter id="luminosity-noclip-18" x="0" y="13.15" width="149.84" height="145.41" filterUnits="userSpaceOnUse" color-interpolation-filters="sRGB"><feFlood flood-color="#fff" result="bg"/><feBlend in="SourceGraphic" in2="bg"/></filter><mask id="mask-18" x="0" y="13.15" width="149.84" height="145.41" maskUnits="userSpaceOnUse"><g mask="url(#mask)" filter="url(#luminosity-noclip-18)"><polygon points="149.03 91.47 56.23 156.4 2.32 79.36 95.13 14.43 94.23 13.15 0 79.08 55.61 158.56 149.84 92.62 149.03 91.47" fill="url(#radial-gradient)" style="mix-blend-mode:multiply"/></g></mask><radialGradient id="radial-gradient-19" cx="68.83" cy="73.18" r="97.27" gradientTransform="matrix(0.57, 0.82, -0.82, 0.57, 94.1, -42.79)" gradientUnits="userSpaceOnUse"><stop offset="0" stop-color="#d5cee7"/><stop offset="0.51" stop-color="#cbc7d7"/><stop offset="1" stop-color="#c3bec6"/></radialGradient><radialGradient id="radial-gradient-20" cx="86.48" cy="10.36" r="56.87" gradientTransform="translate(151.23 -50.31) rotate(90)" xlink:href="#radial-gradient-16"/><radialGradient id="radial-gradient-21" cx="85.25" cy="1.33" r="60.16" gradientTransform="translate(150.73 -51.9) rotate(90)" xlink:href="#radial-gradient-16"/><radialGradient id="radial-gradient-22" cx="81.14" cy="-1.55" r="66.74" gradientTransform="translate(150.18 -53.66) rotate(90)" xlink:href="#radial-gradient-16"/><radialGradient id="radial-gradient-23" cx="78.89" cy="7.28" r="65.5" gradientTransform="matrix(0.57, 0.82, -0.82, 0.57, 94.1, -42.79)" xlink:href="#radial-gradient-16"/><radialGradient id="radial-gradient-24" cx="74.16" cy="26.78" r="70.63" gradientTransform="matrix(0.57, 0.82, -0.82, 0.57, 94.1, -42.79)" gradientUnits="userSpaceOnUse"><stop offset="0.5" stop-color="#e2deeb"/><stop offset="0.78" stop-color="#d5cfe3"/><stop offset="1" stop-color="#c3bec6"/></radialGradient><radialGradient id="radial-gradient-25" cx="86.48" cy="10.36" r="56.87" gradientTransform="matrix(0.57, 0.82, -0.82, 0.57, 94.1, -42.79)" gradientUnits="userSpaceOnUse"><stop offset="0.43" stop-color="#e7e4ee"/><stop offset="0.78" stop-color="#d5cfe3"/><stop offset="1" stop-color="#d6d2e4"/></radialGradient><radialGradient id="radial-gradient-26" cx="85.25" cy="1.33" r="60.16" xlink:href="#radial-gradient-25"/><radialGradient id="radial-gradient-27" cx="81.14" cy="-1.55" r="66.74" xlink:href="#radial-gradient-25"/><radialGradient id="radial-gradient-28" cx="90.79" cy="30.48" r="56.25" gradientTransform="matrix(0.57, 0.82, -0.82, 0.57, 94.1, -42.79)" gradientUnits="userSpaceOnUse"><stop offset="0" stop-color="#c3bec6"/><stop offset="0.34" stop-color="#d5cee7"/><stop offset="0.85" stop-color="#b0aab2"/><stop offset="1" stop-color="#c8c5ca"/></radialGradient><radialGradient id="radial-gradient-29" cx="65.27" cy="74.51" r="85.1" gradientTransform="matrix(0.57, 0.82, -0.82, 0.57, 94.1, -42.79)" gradientUnits="userSpaceOnUse"><stop offset="0.18" stop-color="#fff"/><stop offset="0.65" stop-color="#d5cee7"/><stop offset="1" stop-color="#c3bec6"/></radialGradient><radialGradient id="radial-gradient-30" cx="39.45" cy="12.91" r="112.47" gradientTransform="matrix(0.57, 0.82, -0.82, 0.57, 94.1, -42.79)" gradientUnits="userSpaceOnUse"><stop offset="0" stop-color="#c3bec6"/><stop offset="0.34" stop-color="#d5cee7"/><stop offset="1" stop-color="#b0aab2"/></radialGradient><radialGradient id="radial-gradient-31" cx="128.01" cy="73.68" r="68.09" xlink:href="#radial-gradient-29"/><filter id="luminosity-noclip-19" x="57.84" y="18.07" width="88.18" height="73.3" filterUnits="userSpaceOnUse" color-interpolation-filters="sRGB"><feFlood flood-color="#fff" result="bg"/><feBlend in="SourceGraphic" in2="bg"/></filter><mask id="mask-19" x="57.84" y="18.07" width="88.18" height="73.3" maskUnits="userSpaceOnUse"><g mask="url(#mask-7)" filter="url(#luminosity-noclip-19)"><path d="M145.84,89.69c-5.48-8.18-9.78-14.7-16.34-24.42-1.67-2.48-3.37-5-5.12-7.4-5.65-7.85-12-15.19-17.5-23.13-3.08-4.42-8.4-14.89-11.68-16.35-3.92-1.76-7.71,4.29-10.94,6.53-5.65,3.91-26.1,13.74-26.42,21.61-.1,2.41,6.72-4.53,13.1-6,2.75-.62,7.59,3.16,10.32,4,3.13,1,5.63,3.45,7.73,5.87,4.27,4.92,6.07,7.35,11.4,11.14,5,3.53,8.83,2.59,15.08,12.24,8.12,12.53,8.08,4.38,3.64-3-3.3-5.5-11.89-14.3-17.15-23.07-6.3-10.5-7.34-15.26-2.22-14.36,4.41,2.54,7.06,8.2,8.78,12.27,2.57,6.09,5.74,10.29,8.86,14.76,3.41,4.9,6.8,9.83,10.25,14.71,3.73,5.28,6.94,9.84,12.16,13.79C145.64,93.34,146.47,90.63,145.84,89.69Z" fill="url(#radial-gradient-6)" style="mix-blend-mode:multiply"/></g></mask><radialGradient id="radial-gradient-32" cx="44.72" cy="-60.35" r="131.83" gradientTransform="matrix(0.57, 0.82, -0.82, 0.57, 94.1, -42.79)" gradientUnits="userSpaceOnUse"><stop offset="0.74" stop-color="#fff"/><stop offset="0.83" stop-color="#d5cee7"/><stop offset="1" stop-color="#c3bec6"/></radialGradient><filter id="luminosity-noclip-20" x="57.37" y="113.17" width="57.05" height="40.92" filterUnits="userSpaceOnUse" color-interpolation-filters="sRGB"><feFlood flood-color="#fff" result="bg"/><feBlend in="SourceGraphic" in2="bg"/></filter><mask id="mask-20" x="57.37" y="113.17" width="57.05" height="40.92" maskUnits="userSpaceOnUse"><g mask="url(#mask-15)" filter="url(#luminosity-noclip-20)"><path d="M114.42,113.17s-46.72,34.2-57,40.93c0,0,7.35-4.9,11.83-21.06s11.76-19,24-15.52S114.42,113.17,114.42,113.17Z" fill="url(#radial-gradient-13)" style="mix-blend-mode:multiply"/></g></mask><radialGradient id="radial-gradient-33" cx="151.35" cy="108.69" r="24.36" gradientTransform="matrix(0.57, 0.82, -0.82, 0.57, 94.1, -42.79)" gradientUnits="userSpaceOnUse"><stop offset="0.26" stop-color="#fff"/><stop offset="0.63" stop-color="#d5cee7"/><stop offset="0.96" stop-color="#c3bec6"/></radialGradient><filter id="luminosity-noclip-21" x="6.63" y="80.86" width="49.46" height="72.12" filterUnits="userSpaceOnUse" color-interpolation-filters="sRGB"><feFlood flood-color="#fff" result="bg"/><feBlend in="SourceGraphic" in2="bg"/></filter><mask id="mask-21" x="6.63" y="80.86" width="49.46" height="72.12" maskUnits="userSpaceOnUse"><g mask="url(#mask-16)" filter="url(#luminosity-noclip-21)"><path d="M6.63,80.86s2,3.6,18.53,8.58,19,10.74,15.3,21.87-4.44,10.12,5,16.51S51,145,56.09,153c0,0-7.09-6.57-22.29-29S6.63,80.86,6.63,80.86Z" fill="url(#radial-gradient-14)" style="mix-blend-mode:multiply"/></g></mask><radialGradient id="radial-gradient-34" cx="75.39" cy="398.76" r="271.83" gradientTransform="matrix(0.57, 0.82, -0.82, 0.57, 94.1, -42.79)" gradientUnits="userSpaceOnUse"><stop offset="0.26" stop-color="#fff"/><stop offset="0.93" stop-color="#d5cee7"/><stop offset="0.99" stop-color="#c3bec6"/></radialGradient><filter id="luminosity-noclip-22" x="66.6" y="90.1" width="82.41" height="59.11" filterUnits="userSpaceOnUse" color-interpolation-filters="sRGB"><feFlood flood-color="#fff" result="bg"/><feBlend in="SourceGraphic" in2="bg"/></filter><mask id="mask-22" x="66.6" y="90.1" width="82.41" height="59.11" maskUnits="userSpaceOnUse"><g mask="url(#mask-17)" filter="url(#luminosity-noclip-22)"><path d="M149,90.1S81.52,139.5,66.6,149.21c0,0,10.62-7.06,17.09-30.41s17-27.44,34.62-22.41S149,90.1,149,90.1Z" fill="url(#radial-gradient-15)" style="mix-blend-mode:multiply"/></g></mask><radialGradient id="radial-gradient-35" cx="157.57" cy="83.09" r="35.19" xlink:href="#radial-gradient-33"/><filter id="luminosity-noclip-23" x="58.16" y="20.17" width="83.92" height="68.58" filterUnits="userSpaceOnUse" color-interpolation-filters="sRGB"><feFlood flood-color="#fff" result="bg"/><feBlend in="SourceGraphic" in2="bg"/></filter><mask id="mask-23" x="58.16" y="20.17" width="83.92" height="68.58" maskUnits="userSpaceOnUse"><g mask="url(#mask-2)" filter="url(#luminosity-noclip-23)"><path d="M92.8,20.32s2.47,1,6.72,7.82a144,144,0,0,0,15,19.6c5.78,6.47,21.3,32.95,26.51,39.32s-9.53-6.1-20.45-22.77S82.84,28.29,65.35,38s1.87-3.06,6.31-5.66A85.73,85.73,0,0,0,83.6,24C86.56,21.43,90.56,19.63,92.8,20.32Z" fill="url(#radial-gradient-2)" style="mix-blend-mode:multiply"/></g></mask><radialGradient id="radial-gradient-36" cx="98.59" cy="121.21" r="90.8" gradientTransform="matrix(0.57, 0.82, -0.82, 0.57, 94.1, -42.79)" gradientUnits="userSpaceOnUse"><stop offset="0.89" stop-color="#c3bec6"/><stop offset="0.97" stop-color="#d5cee7"/><stop offset="1" stop-color="#fff"/></radialGradient><filter id="luminosity-noclip-24" x="4.54" y="26.89" width="77.07" height="53.85" filterUnits="userSpaceOnUse" color-interpolation-filters="sRGB"><feFlood flood-color="#fff" result="bg"/><feBlend in="SourceGraphic" in2="bg"/></filter><mask id="mask-24" x="4.54" y="26.89" width="77.07" height="53.85" maskUnits="userSpaceOnUse"><g mask="url(#mask-3)" filter="url(#luminosity-noclip-24)"><path d="M81.61,26.89s-16.81,9.64-17.89,22,4.36,21.62-11.79,21.65-16.72-3-21.92,5.19S22,75,14.52,78.35s-10,2.22-10,2.22S67.06,32.94,81.61,26.89Z" fill="url(#radial-gradient-3)" style="mix-blend-mode:multiply"/></g></mask><radialGradient id="radial-gradient-37" cx="-8.61" cy="81.74" r="81.99" gradientTransform="matrix(0.57, 0.82, -0.82, 0.57, 94.1, -42.79)" gradientUnits="userSpaceOnUse"><stop offset="0.26" stop-color="#fff"/><stop offset="0.8" stop-color="#d5cee7"/><stop offset="0.97" stop-color="#c3bec6"/></radialGradient><radialGradient id="radial-gradient-38" cx="88.56" cy="33.8" r="27.41" xlink:href="#radial-gradient-29"/><radialGradient id="radial-gradient-39" cx="94.18" cy="30.39" r="34.04" xlink:href="#radial-gradient-29"/><radialGradient id="radial-gradient-40" cx="94.23" cy="27.35" r="33.64" xlink:href="#radial-gradient-24"/><filter id="luminosity-noclip-25" x="104.93" y="7.43" width="53.72" height="75.49" filterUnits="userSpaceOnUse" color-interpolation-filters="sRGB"><feFlood flood-color="#fff" result="bg"/><feBlend in="SourceGraphic" in2="bg"/></filter><mask id="mask-25" x="104.93" y="7.43" width="53.72" height="75.49" maskUnits="userSpaceOnUse"><g mask="url(#mask-4)" filter="url(#luminosity-noclip-25)"><path d="M105.25,7.43l53.4,75.49a28.16,28.16,0,0,0-5.31-4.36c-3.47-2.28-7.75-4.36-15.49-14.35s-10.39-21.29-15.37-28.14-8-4.95-13.57-12.68A21,21,0,0,1,105.25,7.43Z" fill="url(#linear-gradient)" style="mix-blend-mode:multiply"/></g></mask><linearGradient id="linear-gradient-3" x1="93.77" y1="27.65" x2="93.77" y2="19.46" gradientTransform="matrix(0.57, 0.82, -0.82, 0.57, 94.1, -42.79)" gradientUnits="userSpaceOnUse"><stop offset="0.43" stop-color="#c3bec6"/><stop offset="0.77" stop-color="#d5cee7"/><stop offset="1" stop-color="#fff"/></linearGradient><radialGradient id="radial-gradient-41" cx="94.18" cy="18.16" r="33.39" gradientTransform="matrix(0.57, 0.82, -0.82, 0.57, 94.1, -42.79)" gradientUnits="userSpaceOnUse"><stop offset="0" stop-color="#c3bec6"/><stop offset="0.59" stop-color="#d5cfe3"/><stop offset="1" stop-color="#e2deeb"/></radialGradient><filter id="luminosity-noclip-26" x="108.35" y="5.89" width="53.66" height="76.12" filterUnits="userSpaceOnUse" color-interpolation-filters="sRGB"><feFlood flood-color="#fff" result="bg"/><feBlend in="SourceGraphic" in2="bg"/></filter><mask id="mask-26" x="108.35" y="5.89" width="53.66" height="76.12" maskUnits="userSpaceOnUse"><g mask="url(#mask-5)" filter="url(#luminosity-noclip-26)"><path d="M147.79,61.31c-4.66-6-8.6-12.29-13.11-18.38s-8.8-12.28-12.93-18.62c-2-3.08-4.21-6-6.4-9S110.9,9,108.53,5.93a.1.1,0,0,0-.16.11,96.4,96.4,0,0,0,6,9.24c2.08,3,4.16,6.07,6.17,9.14C124.72,30.76,129,37,133.44,43.09c4.37,6,9.42,13,13.67,19C153.4,71.06,157,75.57,162,82,162.22,82.27,152.18,67,147.79,61.31Z" fill="url(#radial-gradient-4)" style="mix-blend-mode:multiply"/></g></mask><radialGradient id="radial-gradient-42" cx="75.55" cy="16.33" r="34.04" gradientTransform="translate(106.48 -25.1) rotate(55.02) scale(0.97 1)" gradientUnits="userSpaceOnUse"><stop offset="0" stop-color="#fff"/><stop offset="0.4" stop-color="#d5cee7"/><stop offset="0.85" stop-color="#c3bec6"/></radialGradient><filter id="luminosity-noclip-27" x="110.61" y="4.34" width="53.54" height="76.17" filterUnits="userSpaceOnUse" color-interpolation-filters="sRGB"><feFlood flood-color="#fff" result="bg"/><feBlend in="SourceGraphic" in2="bg"/></filter><mask id="mask-27" x="110.61" y="4.34" width="53.54" height="76.17" maskUnits="userSpaceOnUse"><g mask="url(#mask-6)" filter="url(#luminosity-noclip-27)"><path d="M149.86,59.86c-4.54-6.06-8.6-12.29-13-18.42s-8.75-12.32-13-18.61c-2-3-4.21-6-6.37-9-2.28-3.13-4.44-6.35-6.76-9.44-.07-.11-.16,0-.1.07,1.85,3.14,4.07,6.15,6.15,9.16s4.18,6.05,6.22,9.1c4.22,6.29,8.49,12.5,12.92,18.64s9.34,13.07,13.59,19.11c6.27,8.93,9.77,13.52,14.64,20C164.35,80.78,154.14,65.57,149.86,59.86Z" fill="url(#radial-gradient-5)" style="mix-blend-mode:multiply"/></g></mask><radialGradient id="radial-gradient-43" cx="96.23" cy="-898.72" fx="66.56451545848557" r="43.01" gradientTransform="matrix(0.57, 0.82, -0.51, 0.36, -376.23, 286.29)" xlink:href="#radial-gradient-42"/><filter id="luminosity-noclip-28" x="113.33" y="2.31" width="53.54" height="76.17" filterUnits="userSpaceOnUse" color-interpolation-filters="sRGB"><feFlood flood-color="#fff" result="bg"/><feBlend in="SourceGraphic" in2="bg"/></filter><mask id="mask-28" x="113.33" y="2.31" width="53.54" height="76.17" maskUnits="userSpaceOnUse"><g mask="url(#mask-8)" filter="url(#luminosity-noclip-28)"><path d="M152.58,57.83c-4.54-6.06-8.6-12.29-13-18.42s-8.76-12.32-13-18.6c-2-3.06-4.21-6-6.37-9s-4.45-6.35-6.76-9.44c-.08-.1-.16,0-.1.07,1.85,3.15,4.06,6.15,6.14,9.16s4.18,6.06,6.23,9.11c4.21,6.28,8.49,12.49,12.92,18.63S148,52.4,152.22,58.45c6.28,8.92,9.77,13.51,14.65,20C167.07,78.75,156.86,63.55,152.58,57.83Z" fill="url(#radial-gradient-7)" style="mix-blend-mode:multiply"/></g></mask><radialGradient id="radial-gradient-44" cx="96.13" cy="-899.84" fx="66.46162754787761" r="43.01" gradientTransform="matrix(0.57, 0.82, -0.51, 0.36, -374.03, 284.75)" xlink:href="#radial-gradient-42"/><filter id="luminosity-noclip-29" x="117.07" y="12.49" width="49.44" height="69.51" filterUnits="userSpaceOnUse" color-interpolation-filters="sRGB"><feFlood flood-color="#fff" result="bg"/><feBlend in="SourceGraphic" in2="bg"/></filter><mask id="mask-29" x="117.07" y="12.49" width="49.44" height="69.51" maskUnits="userSpaceOnUse"><g mask="url(#mask-9)" filter="url(#luminosity-noclip-29)"><path d="M166.51,77.86S152.57,58.3,151.32,57.41s-8.72-8.17.14,5,12.69,18.06,12.69,18.06-12.85-16.69-14.87-19-4.95-4.93-.76,1.78S162,82,162,82s-18.12-24.64-20-26.74S127.35,35,126.57,34.39s-3.88-9.31-8.55-15.81c0,0,21.58,30.5,23.24,33.22s4,3.36.17-2.62-24.36-36.07-24.36-36.07,22.2,30.75,23.34,32.21c1.93,2.45,7.06,6.66,2.45-.4-1-1.46-22.22-32.43-22.22-32.43s26.22,36.4,30.72,43S166.51,77.86,166.51,77.86Z" fill="url(#linear-gradient-2)" style="mix-blend-mode:multiply"/></g></mask><linearGradient id="linear-gradient-4" x1="99.82" y1="17.7" x2="100.54" y2="8.98" gradientTransform="matrix(0.57, 0.82, -0.82, 0.57, 94.1, -42.79)" gradientUnits="userSpaceOnUse"><stop offset="0.05" stop-color="#c3bec6"/><stop offset="0.55" stop-color="#d5cee7"/><stop offset="0.76" stop-color="#c6c0ca"/><stop offset="1" stop-color="#fff"/></linearGradient><radialGradient id="radial-gradient-45" cx="47.19" cy="146.46" r="46.51" gradientTransform="matrix(0.57, 0.82, -0.82, 0.57, 94.1, -42.79)" gradientUnits="userSpaceOnUse"><stop offset="0.08" stop-color="#c3bec6"/><stop offset="0.36" stop-color="#d5cfe3"/><stop offset="1" stop-color="#fff"/></radialGradient><radialGradient id="radial-gradient-46" cx="142.65" cy="140.51" r="42.59" gradientTransform="matrix(0.57, 0.82, -0.82, 0.57, 94.1, -42.79)" gradientUnits="userSpaceOnUse"><stop offset="0" stop-color="#c3bec6"/><stop offset="0.36" stop-color="#d5cfe3"/><stop offset="1" stop-color="#fff"/></radialGradient><radialGradient id="radial-gradient-47" cx="51.2" cy="145.28" r="35.98" xlink:href="#radial-gradient-45"/><radialGradient id="radial-gradient-48" cx="51.2" cy="145.28" r="35.97" xlink:href="#radial-gradient-45"/><radialGradient id="radial-gradient-49" cx="143.42" cy="144.05" r="34.02" xlink:href="#radial-gradient-45"/><radialGradient id="radial-gradient-50" cx="143.42" cy="144.05" r="34.01" xlink:href="#radial-gradient-45"/><filter id="luminosity-noclip-30" x="6.1" y="82.26" width="28.16" height="39.26" filterUnits="userSpaceOnUse" color-interpolation-filters="sRGB"><feFlood flood-color="#fff" result="bg"/><feBlend in="SourceGraphic" in2="bg"/></filter><mask id="mask-30" x="6.1" y="82.26" width="28.16" height="39.26" maskUnits="userSpaceOnUse"><g mask="url(#mask-10)" filter="url(#luminosity-noclip-30)"><path d="M34.26,121.52S10.73,89.37,6.1,82.26c0,0,3.37,5.06,14.49,8.14s13.08,8.09,10.68,16.49A16.63,16.63,0,0,0,34.26,121.52Z" fill="url(#radial-gradient-8)" style="mix-blend-mode:multiply"/></g></mask><radialGradient id="radial-gradient-51" cx="-808.14" cy="2318.61" r="16.77" gradientTransform="matrix(-0.82, 0.57, -0.57, -0.82, 680.46, 2469.02)" xlink:href="#radial-gradient-33"/><filter id="luminosity-noclip-31" x="18.16" y="82.96" width="63.33" height="55.06" filterUnits="userSpaceOnUse" color-interpolation-filters="sRGB"><feFlood flood-color="#fff" result="bg"/><feBlend in="SourceGraphic" in2="bg"/></filter><mask id="mask-31" x="18.16" y="82.96" width="63.33" height="55.06" maskUnits="userSpaceOnUse"><g mask="url(#mask-11)" filter="url(#luminosity-noclip-31)"><path d="M21.13,84.4s29,6,35,12.08,9.52,11.9,6.49,18.27-5.79,10.3-5.47,16.85-.64,9.47,5,2.05S69.15,123,77.35,115s4-20.37-10.58-24.42S34.9,83.26,28.86,83.24,13.28,82.13,21.13,84.4Z" fill="url(#radial-gradient-9)" style="mix-blend-mode:multiply"/></g></mask><radialGradient id="radial-gradient-52" cx="83.53" cy="119.98" r="39.28" gradientTransform="matrix(0.57, 0.82, -0.82, 0.57, 94.1, -42.79)" gradientUnits="userSpaceOnUse"><stop offset="0" stop-color="#fff"/><stop offset="0.66" stop-color="#d5cee7"/><stop offset="0.96" stop-color="#c3bec6"/></radialGradient><filter id="luminosity-noclip-32" x="17.78" y="57.86" width="72.97" height="38.76" filterUnits="userSpaceOnUse" color-interpolation-filters="sRGB"><feFlood flood-color="#fff" result="bg"/><feBlend in="SourceGraphic" in2="bg"/></filter><mask id="mask-32" x="17.78" y="57.86" width="72.97" height="38.76" maskUnits="userSpaceOnUse"><g mask="url(#mask-12)" filter="url(#luminosity-noclip-32)"><path d="M21.3,79.27c6.42.3,38.14-.63,46.22,3.74s31.86,24.06,20,6.33S62.1,72.77,58.69,62.88,47.17,59.67,45,66.21s-7.66,7.3-15,9.57S12.24,78.85,21.3,79.27Z" fill="url(#radial-gradient-10)" style="mix-blend-mode:multiply"/></g></mask><radialGradient id="radial-gradient-53" cx="84.35" cy="127.37" r="37.25" xlink:href="#radial-gradient-52"/><filter id="luminosity-noclip-33" x="39.46" y="84.56" width="59.92" height="37.54" filterUnits="userSpaceOnUse" color-interpolation-filters="sRGB"><feFlood flood-color="#fff" result="bg"/><feBlend in="SourceGraphic" in2="bg"/></filter><mask id="mask-33" x="39.46" y="84.56" width="59.92" height="37.54" maskUnits="userSpaceOnUse"><g mask="url(#mask-13)" filter="url(#luminosity-noclip-33)"><path d="M43.06,85c12.42,2.38,21.77,5.06,26.4,7.65s6.5,8.23,15.1,10.85,11,1.5,14.33.88-11.17,6.31-14.76,10.32-12.31,13-14.58,2.27-11.07-24.16-20-27.84S35.68,83.62,43.06,85Z" fill="url(#radial-gradient-11)" style="mix-blend-mode:multiply"/></g></mask><radialGradient id="radial-gradient-54" cx="102.42" cy="105.4" r="19.71" gradientTransform="matrix(0.57, 0.82, -0.82, 0.57, 94.1, -42.79)" gradientUnits="userSpaceOnUse"><stop offset="0" stop-color="#fff"/><stop offset="0.63" stop-color="#d5cee7"/><stop offset="0.96" stop-color="#c3bec6"/></radialGradient><filter id="luminosity-noclip-34" x="15.79" y="87.85" width="37.76" height="43.49" filterUnits="userSpaceOnUse" color-interpolation-filters="sRGB"><feFlood flood-color="#fff" result="bg"/><feBlend in="SourceGraphic" in2="bg"/></filter><mask id="mask-34" x="15.79" y="87.85" width="37.76" height="43.49" maskUnits="userSpaceOnUse"><g mask="url(#mask-14)" filter="url(#luminosity-noclip-34)"><path d="M25.05,91.43c7.83,3.88,20.55,11.78,17.1,6.88s5.72-2.55,9.85,6.58-.94,16.2-4.17,22-6.31,5.67-5,1.48a13.45,13.45,0,0,0-4.51-15.13c-5.84-4.68-16.81-11-9.86-11.14s1.6-2.37-6.1-8S11.63,84.79,25.05,91.43Z" fill="url(#radial-gradient-12)" style="mix-blend-mode:multiply"/></g></mask><radialGradient id="radial-gradient-55" cx="92.77" cy="128.6" r="16.17" gradientTransform="matrix(0.57, 0.82, -0.82, 0.57, 94.1, -42.79)" gradientUnits="userSpaceOnUse"><stop offset="0" stop-color="#fff"/><stop offset="0.24" stop-color="#d5cee7"/><stop offset="0.96" stop-color="#c3bec6"/></radialGradient></defs><g style="isolation:isolate"><g id="Layer_2" data-name="Layer 2"><g id="Layer_1-2" data-name="Layer 1"><rect x="2.65" y="64.91" width="164.65" height="99.42" fill="#f8b86e"/><path d="M167.3,165.33H2.65a1,1,0,0,1-1-1V64.91a1,1,0,0,1,1-1H167.3a1,1,0,0,1,1,1v99.43A1,1,0,0,1,167.3,165.33Zm-163.65-2H166.3V65.91H3.65Z" fill="#b55a31"/><polygon points="2.65 64.91 12.93 20.15 157.02 20.15 167.3 64.91 2.65 64.91" fill="#faa74a" fill-rule="evenodd"/><rect x="124.99" y="-0.91" width="9.24" height="96.99" transform="translate(-3.87 82.9) rotate(-34.98)" fill="url(#radial-gradient-16)" style="mix-blend-mode:multiply"/><rect x="121.62" y="3.07" width="4.62" height="96.99" transform="translate(-7.17 80.36) rotate(-34.98)" fill="url(#radial-gradient-17)" style="mix-blend-mode:multiply"/><rect x="17.42" y="37.36" width="115.01" height="96.99" transform="translate(-35.69 58.46) rotate(-34.98)" fill="url(#radial-gradient-18)"/><g mask="url(#mask-18)"><polygon points="149.03 91.47 56.23 156.4 2.32 79.36 95.13 14.43 94.23 13.15 0 79.08 55.61 158.56 149.84 92.62 149.03 91.47" fill="url(#radial-gradient-19)" style="mix-blend-mode:multiply"/></g><rect x="133.13" y="-4.39" width="2.92" height="96.99" transform="translate(-0.97 85.13) rotate(-34.98)" fill="url(#radial-gradient-20)" style="mix-blend-mode:multiply"/><rect x="135.55" y="-5.98" width="2.62" height="96.99" transform="translate(0.35 86.14) rotate(-34.98)" fill="url(#radial-gradient-21)" style="mix-blend-mode:multiply"/><rect x="137.61" y="-7.75" width="3.54" height="96.99" transform="translate(1.82 87.27) rotate(-34.98)" fill="url(#radial-gradient-22)" style="mix-blend-mode:multiply"/><path d="M105.59,5.21,98,10.5,153.62,90l7.57-5.3ZM152.54,86a.69.69,0,0,1-.46-.34.64.64,0,0,1-.61-.28L103,16.13a.62.62,0,0,1-.29-.25c-1.18-1.74-2-3.93-1-6a5.5,5.5,0,0,1,3.52-2.5.72.72,0,0,1,1.19,0L157,79.72a.68.68,0,0,1-.15,1C157.05,83.51,156.07,86.9,152.54,86Z" opacity="0.4" fill="url(#radial-gradient-23)" style="mix-blend-mode:multiply"/><path d="M98,10.5l-3.79,2.65,55.61,79.47L153.62,90Zm52.85,78.68L97.61,13.07a.73.73,0,0,1,1.19-.83l53.25,76.11A.72.72,0,0,1,150.87,89.18Z" opacity="0.7" fill="url(#radial-gradient-24)" style="mix-blend-mode:multiply"/><path d="M108,3.53l-2.39,1.68,55.6,79.47,2.4-1.68Zm53.17,79.21L107.48,6a.73.73,0,0,1,1.19-.83l53.66,76.7A.72.72,0,0,1,161.15,82.74Z" opacity="0.5" fill="url(#radial-gradient-25)" style="mix-blend-mode:multiply"/><path d="M110.13,2,108,3.53,163.59,83l2.14-1.5Zm53.6,79.4L109.89,4.48a.73.73,0,0,1,1.19-.83L164.92,80.6A.73.73,0,0,1,163.73,81.43Z" opacity="0.5" fill="url(#radial-gradient-26)" style="mix-blend-mode:multiply"/><path d="M113,0l-2.9,2,55.6,79.47,2.91-2Zm52.41,79.25L112.18,3.13a1.06,1.06,0,0,1,1.73-1.21L167.17,78A1.06,1.06,0,0,1,165.44,79.25Z" opacity="0.5" fill="url(#radial-gradient-27)" style="mix-blend-mode:multiply"/><path d="M151.32,92.72c-.53.36-1.14.39-1.37.06L94.13,13c-.24-.34,0-.9.52-1.27h0c.52-.36,1.13-.39,1.37-.06l55.82,79.78c.23.34,0,.9-.52,1.27Z" fill="url(#radial-gradient-28)"/><polygon points="92.81 16.05 2.32 79.36 45.18 141.33 3.59 79.73 92.81 16.05" fill="url(#radial-gradient-29)" style="mix-blend-mode:screen"/><path d="M87.12,18.65l7.11-5.5,55.61,79.47-7.66,5.26,6.68-5.23s.08-.87-1.89.26-17.75,12.41-17.75,12.41,16.41-12.54,17.43-13.5S127.5,62.34,124.38,57.87s-27.82-40-28.71-41.32-11.74,5.78-11.74,5.78L94.38,14.7S94.73,13.14,87.12,18.65Z" fill="url(#radial-gradient-30)" style="mix-blend-mode:multiply"/><polygon points="138.37 79.63 147.53 92.01 56.23 156.4 45.77 142.17 56.44 155.63 146.27 91.64 138.37 79.63" fill="url(#radial-gradient-31)" style="mix-blend-mode:screen"/><g mask="url(#mask-19)"><path d="M145.84,89.69c-5.48-8.18-9.78-14.7-16.34-24.42-1.67-2.48-3.37-5-5.12-7.4-5.65-7.85-12-15.19-17.5-23.13-3.08-4.42-8.4-14.89-11.68-16.35-3.92-1.76-7.71,4.29-10.94,6.53-5.65,3.91-26.1,13.74-26.42,21.61-.1,2.41,6.72-4.53,13.1-6,2.75-.62,7.59,3.16,10.32,4,3.13,1,5.63,3.45,7.73,5.87,4.27,4.92,6.07,7.35,11.4,11.14,5,3.53,8.83,2.59,15.08,12.24,8.12,12.53,8.08,4.38,3.64-3-3.3-5.5-11.89-14.3-17.15-23.07-6.3-10.5-7.34-15.26-2.22-14.36,4.41,2.54,7.06,8.2,8.78,12.27,2.57,6.09,5.74,10.29,8.86,14.76,3.41,4.9,6.8,9.83,10.25,14.71,3.73,5.28,6.94,9.84,12.16,13.79C145.64,93.34,146.47,90.63,145.84,89.69Z" opacity="0.4" fill="url(#radial-gradient-32)" style="mix-blend-mode:screen"/></g><g mask="url(#mask-20)"><path d="M114.42,113.17s-46.72,34.2-57,40.93c0,0,7.35-4.9,11.83-21.06s11.76-19,24-15.52S114.42,113.17,114.42,113.17Z" opacity="0.8" fill="url(#radial-gradient-33)" style="mix-blend-mode:screen"/></g><g mask="url(#mask-21)"><path d="M6.63,80.86s2,3.6,18.53,8.58,19,10.74,15.3,21.87-4.44,10.12,5,16.51S51,145,56.09,153c0,0-7.09-6.57-22.29-29S6.63,80.86,6.63,80.86Z" opacity="0.8" fill="url(#radial-gradient-34)" style="mix-blend-mode:screen"/></g><g mask="url(#mask-22)"><path d="M149,90.1S81.52,139.5,66.6,149.21c0,0,10.62-7.06,17.09-30.41s17-27.44,34.62-22.41S149,90.1,149,90.1Z" opacity="0.8" fill="url(#radial-gradient-35)" style="mix-blend-mode:screen"/></g><path d="M7.67,83.33S24.54,108,28.11,112.81s16.37,27.44,27.59,39.7c0,0-11.53-11.1-28.64-38.78S7.67,83.33,7.67,83.33Z" fill="#fff"/><g mask="url(#mask-23)"><path d="M92.8,20.32s2.47,1,6.72,7.82a144,144,0,0,0,15,19.6c5.78,6.47,21.3,32.95,26.51,39.32s-9.53-6.1-20.45-22.77S82.84,28.29,65.35,38s1.87-3.06,6.31-5.66A85.73,85.73,0,0,0,83.6,24C86.56,21.43,90.56,19.63,92.8,20.32Z" fill="url(#radial-gradient-36)" style="mix-blend-mode:screen"/></g><g mask="url(#mask-24)"><path d="M81.61,26.89s-16.81,9.64-17.89,22,4.36,21.62-11.79,21.65-16.72-3-21.92,5.19S22,75,14.52,78.35s-10,2.22-10,2.22S67.06,32.94,81.61,26.89Z" opacity="0.8" fill="url(#radial-gradient-37)" style="mix-blend-mode:screen"/></g><path d="M138.9,81.14c-6.67-12.43-15-24-23.56-35.24-2-2.62-4.17-5.14-6-7.89-1.63-2.44-3-5.06-4.45-7.62-2.69-4.76-5.68-9.68-10.56-12.46-.12-.07-.24.12-.13.2,4.8,3.28,7.68,8.7,10.45,13.66,1.34,2.41,2.67,4.83,4.2,7.13,1.85,2.78,4.08,5.33,6.11,8C123.42,58,131.2,69.55,138.76,81.23,138.82,81.33,139,81.23,138.9,81.14Z" fill="url(#radial-gradient-38)" style="mix-blend-mode:screen"/><path d="M136.42,69.6c-4.81-6.19-8.89-12.71-13.55-19s-9.1-12.7-13.37-19.25c-2.08-3.19-4.35-6.24-6.62-9.29-2.39-3.21-4.6-6.57-7-9.73a.1.1,0,0,0-.16.11A99.87,99.87,0,0,0,101.93,22c2.15,3.13,4.3,6.27,6.38,9.45,4.29,6.55,8.69,13,13.31,19.31,4.51,6.16,9.73,13.46,14.13,19.71C142.26,79.66,146,84.33,151.14,91,151.35,91.27,141,75.43,136.42,69.6Z" fill="url(#radial-gradient-39)" style="mix-blend-mode:screen"/><g style="mix-blend-mode:multiply"><path d="M98.42,11.12l2.43,3.29,2.75,3.8c1.06,1.48,2.25,3.14,3.54,5s2.7,3.78,4.15,5.89,3,4.33,4.53,6.63,3.2,4.68,4.88,7.08,3.41,4.81,5.15,7.22L131,57.2c1.7,2.39,3.36,4.74,5,7l4.61,6.58c1.47,2.09,2.83,4.09,4.09,5.93l6.07,8.9,2.28,3.4-.05,0-2.43-3.3L144.28,77c-1.3-1.81-2.71-3.77-4.18-5.87s-3-4.29-4.62-6.57-3.22-4.66-4.89-7.07l-5-7.32c-1.68-2.46-3.36-4.91-5-7.31s-3.35-4.74-5-7-3.23-4.43-4.7-6.52-2.85-4.07-4.12-5.9-2.43-3.52-3.45-5l-2.64-3.88c-1.44-2.17-2.27-3.4-2.27-3.4Z" fill="url(#radial-gradient-40)"/></g><g mask="url(#mask-25)"><path d="M105.25,7.43l53.4,75.49a28.16,28.16,0,0,0-5.31-4.36c-3.47-2.28-7.75-4.36-15.49-14.35s-10.39-21.29-15.37-28.14-8-4.95-13.57-12.68A21,21,0,0,1,105.25,7.43Z" fill="url(#linear-gradient-3)" style="mix-blend-mode:screen"/></g><path d="M106.15,6.1l8.6,12,8.74,12.33,10,14.19,9.9,14.22L152,71.28l8.31,12.19-8.6-12-8.75-12.34L133,45l-9.9-14.23c-3.15-4.55-6.08-8.8-8.6-12.45Z" opacity="0.7" fill="url(#radial-gradient-41)" style="mix-blend-mode:multiply"/><g mask="url(#mask-26)"><path d="M147.79,61.31c-4.66-6-8.6-12.29-13.11-18.38s-8.8-12.28-12.93-18.62c-2-3.08-4.21-6-6.4-9S110.9,9,108.53,5.93a.1.1,0,0,0-.16.11,96.4,96.4,0,0,0,6,9.24c2.08,3,4.16,6.07,6.17,9.14C124.72,30.76,129,37,133.44,43.09c4.37,6,9.42,13,13.67,19C153.4,71.06,157,75.57,162,82,162.22,82.27,152.18,67,147.79,61.31Z" fill="url(#radial-gradient-42)" style="mix-blend-mode:screen"/></g><g mask="url(#mask-27)"><path d="M149.86,59.86c-4.54-6.06-8.6-12.29-13-18.42s-8.75-12.32-13-18.61c-2-3-4.21-6-6.37-9-2.28-3.13-4.44-6.35-6.76-9.44-.07-.11-.16,0-.1.07,1.85,3.14,4.07,6.15,6.15,9.16s4.18,6.05,6.22,9.1c4.22,6.29,8.49,12.5,12.92,18.64s9.34,13.07,13.59,19.11c6.27,8.93,9.77,13.52,14.64,20C164.35,80.78,154.14,65.57,149.86,59.86Z" fill="url(#radial-gradient-43)" style="mix-blend-mode:screen"/></g><g mask="url(#mask-28)"><path d="M152.58,57.83c-4.54-6.06-8.6-12.29-13-18.42s-8.76-12.32-13-18.6c-2-3.06-4.21-6-6.37-9s-4.45-6.35-6.76-9.44c-.08-.1-.16,0-.1.07,1.85,3.15,4.06,6.15,6.14,9.16s4.18,6.06,6.23,9.11c4.21,6.28,8.49,12.49,12.92,18.63S148,52.4,152.22,58.45c6.28,8.92,9.77,13.51,14.65,20C167.07,78.75,156.86,63.55,152.58,57.83Z" fill="url(#radial-gradient-44)" style="mix-blend-mode:screen"/></g><g mask="url(#mask-29)"><path d="M166.51,77.86S152.57,58.3,151.32,57.41s-8.72-8.17.14,5,12.69,18.06,12.69,18.06-12.85-16.69-14.87-19-4.95-4.93-.76,1.78S162,82,162,82s-18.12-24.64-20-26.74S127.35,35,126.57,34.39s-3.88-9.31-8.55-15.81c0,0,21.58,30.5,23.24,33.22s4,3.36.17-2.62-24.36-36.07-24.36-36.07,22.2,30.75,23.34,32.21c1.93,2.45,7.06,6.66,2.45-.4-1-1.46-22.22-32.43-22.22-32.43s26.22,36.4,30.72,43S166.51,77.86,166.51,77.86Z" fill="url(#linear-gradient-4)" style="mix-blend-mode:screen"/></g><path d="M69.21,31.72S43.37,52.8,37.45,58s-4.73,5.06,6.14,2S14.41,74.07,11.93,75.55s19.63-3.46,32.93-4.5-23.38,6.42,3,7.44S14.4,81.59,11.68,82s-.82,0,21.49,11.62S22,91,39.81,104.65,22.37,96.56,18.1,94,26,109.29,35.65,124.85L2.32,79.36Z" opacity="0.5" fill="url(#radial-gradient-45)" style="mix-blend-mode:multiply"/><path d="M114.13,114.54,56.44,155.63,36.59,128.7s14.58,17.61,16.52,20-3-35.76-3-36.21,5.11,24.49,7,28.66,18.83-21.44,18.83-21.44-7.49,16.51-9.11,20.65.19,5.63,4,1,22.32-27.89,22.32-27.89-10.28,16.46-13,20.39S110.32,117.7,114.13,114.54Z" opacity="0.5" fill="url(#radial-gradient-46)" style="mix-blend-mode:multiply"/><polygon points="45.59 59.65 4.4 80.01 40.46 53.65 13.25 74.38 45.59 59.65" opacity="0.8" fill="url(#radial-gradient-47)" style="mix-blend-mode:multiply"/><path d="M43.44,72.42S16.64,75.2,14,76.29s-9,3.49-6,5.13S27.86,91.78,27.86,91.78,10.81,81.91,10.19,81s7.23-3.37,13.44-4.7S43.44,72.42,43.44,72.42Z" opacity="0.8" fill="url(#radial-gradient-48)" style="mix-blend-mode:multiply"/><path d="M52.35,122.75s2.29,27.71,2.31,28.82A7.16,7.16,0,0,0,55.94,155c.39.29,3.45-2,3.45-2L74.9,124.63S58.51,151.7,57.38,152.49,52.35,122.75,52.35,122.75Z" opacity="0.8" fill="url(#radial-gradient-49)" style="mix-blend-mode:multiply"/><path d="M87.52,119.57S65,145.66,63.25,148s-4,5.6-1.86,4.32,26.74-18.71,26.74-18.71S71,144.84,68.38,145.92,87.52,119.57,87.52,119.57Z" opacity="0.8" fill="url(#radial-gradient-50)" style="mix-blend-mode:multiply"/><g mask="url(#mask-30)"><path d="M34.26,121.52S10.73,89.37,6.1,82.26c0,0,3.37,5.06,14.49,8.14s13.08,8.09,10.68,16.49A16.63,16.63,0,0,0,34.26,121.52Z" opacity="0.8" fill="url(#radial-gradient-51)" style="mix-blend-mode:screen"/></g><g mask="url(#mask-31)"><path d="M21.13,84.4s29,6,35,12.08,9.52,11.9,6.49,18.27-5.79,10.3-5.47,16.85-.64,9.47,5,2.05S69.15,123,77.35,115s4-20.37-10.58-24.42S34.9,83.26,28.86,83.24,13.28,82.13,21.13,84.4Z" opacity="0.4" fill="url(#radial-gradient-52)" style="mix-blend-mode:screen"/></g><g mask="url(#mask-32)"><path d="M21.3,79.27c6.42.3,38.14-.63,46.22,3.74s31.86,24.06,20,6.33S62.1,72.77,58.69,62.88,47.17,59.67,45,66.21s-7.66,7.3-15,9.57S12.24,78.85,21.3,79.27Z" opacity="0.8" fill="url(#radial-gradient-53)" style="mix-blend-mode:screen"/></g><g mask="url(#mask-33)"><path d="M43.06,85c12.42,2.38,21.77,5.06,26.4,7.65s6.5,8.23,15.1,10.85,11,1.5,14.33.88-11.17,6.31-14.76,10.32-12.31,13-14.58,2.27-11.07-24.16-20-27.84S35.68,83.62,43.06,85Z" opacity="0.4" fill="url(#radial-gradient-54)" style="mix-blend-mode:screen"/></g><g mask="url(#mask-34)"><path d="M25.05,91.43c7.83,3.88,20.55,11.78,17.1,6.88s5.72-2.55,9.85,6.58-.94,16.2-4.17,22-6.31,5.67-5,1.48a13.45,13.45,0,0,0-4.51-15.13c-5.84-4.68-16.81-11-9.86-11.14s1.6-2.37-6.1-8S11.63,84.79,25.05,91.43Z" opacity="0.8" fill="url(#radial-gradient-55)" style="mix-blend-mode:screen"/></g><path d="M97.44,122.07a2.88,2.88,0,0,1-1.14,3.2L78.65,136.55,63.21,119.72l18.26-11.8a2.55,2.55,0,0,0,1-2.81Z" fill="#f8bd66" fill-rule="evenodd"/><path d="M79.64,99.71,63,109.59a4.28,4.28,0,0,0-1.89,3.21,17.18,17.18,0,0,0,2.1,6.92l18.26-11.8a2.55,2.55,0,0,0,1-2.81L82,100.73C81.92,100.2,81.05,99.88,79.64,99.71Z" fill="#e3a34d" fill-rule="evenodd"/><path d="M67.42,124.32l-5.34,3.11c-1.07.68-.07,2.94,1.39,2.56l5.88-3.57Z" fill="#f3ece2" fill-rule="evenodd"/><path d="M72,129.34l-5.35,3.12c-1.07.67-.07,2.94,1.39,2.56L74,131.44Z" fill="#f3ece2" fill-rule="evenodd"/><path d="M51.55,81.15l6.12,5.68L63,95.12a22.68,22.68,0,0,1-8.09,5.48l-5.68-8.26-2.85-6.9L46.2,84l-1.82-3.46a1.52,1.52,0,0,1,.09-1.38l3.08-1.9a4.36,4.36,0,0,1,2,1.38Z" fill="#f8bd66" fill-rule="evenodd"/><rect x="61.86" y="98.83" width="1.09" height="1.26" transform="translate(-45.04 52.11) rotate(-34.11)" fill="#886e53"/><rect x="58.7" y="101.03" width="1.09" height="1.26" transform="translate(-46.77 50.61) rotate(-34.05)" fill="#886e53"/><path d="M45.92,79.53c0-.14-2.82-48.67,24.7-27.65l6.23,4.77C91.43,67.86,101.94,76,107.44,76.12c2.62.08,4-1.91,4.2-6.63.49-16-9.93-31.62-10-31.67l1.11-.74c0,.05,10.69,16,10.18,32.45-.17,5.65-2.07,8-5.57,7.92-5.93-.18-16.59-8.38-31.37-19.74l-6.22-4.77C44.62,33.7,47.36,78.71,47.37,78.84,47.42,79.31,46.43,80,45.92,79.53Z" fill="#d7b384"/><polygon points="103.37 36.61 101.72 38.68 95.56 35.91 88.18 29.35 92.34 24.11 100.45 31.03 103.37 36.61" fill="#f8bd66" fill-rule="evenodd"/><polygon points="89.13 28.18 86.76 26.11 89.27 23.02 91.99 25.42 89.5 28.51 89.13 28.18" fill="#f1e7da" fill-rule="evenodd"/><path d="M62.06,96.06A22.78,22.78,0,0,1,56,100.13l3.19,5,6.15-3.81-3.23-5.25Zm.24,4.22-.7-1,.9-.61.71,1-.91.61Zm-2.95.55.7,1-.9.61-.7-1Z" fill="#f1e7da" fill-rule="evenodd"/><path d="M82.45,105.11l15,17c-.76-3.68-1.56-6.36-2.46-7.27L82.54,100.07c-.6-.56-1.68-.54-2.9-.36,1.41.17,2.28.49,2.35,1Z" fill="#cb8f46" fill-rule="evenodd"/><polygon points="70.17 110.25 63.99 114.47 63.2 111.38 69.62 107.56 70.17 110.25" fill="#9b7449" fill-rule="evenodd"/><path d="M167.34,65.91H2.65a1,1,0,0,1-.78-.37,1,1,0,0,1-.19-.85L12,19.93a1,1,0,0,1,1-.77H157a1,1,0,0,1,1,.77l10.22,44.5a1,1,0,0,1,.13.48A1,1,0,0,1,167.34,65.91ZM3.9,63.92H166.05l-9.83-42.77H13.73Z" fill="#b55a31"/><polygon points="2.65 164.34 32.01 158.13 32.01 71.12 2.65 64.91 2.65 164.34" fill="#faa74a" fill-rule="evenodd"/><path d="M2.65,165.33a1,1,0,0,1-.63-.22,1,1,0,0,1-.37-.77V64.91A1,1,0,0,1,2,64.14a1,1,0,0,1,.84-.2l29.35,6.21a1,1,0,0,1,.79,1v87a1,1,0,0,1-.79,1L2.86,165.31Zm1-99.19v97L31,157.32V71.93Z" fill="#b55a31"/><polygon points="167.3 164.34 137.94 158.13 137.94 71.12 167.3 64.91 167.3 164.34" fill="#faa74a" fill-rule="evenodd"/><path d="M167.3,165.33l-.2,0-29.36-6.21a1,1,0,0,1-.79-1v-87a1,1,0,0,1,.79-1l29.36-6.21a1,1,0,0,1,1.2,1v99.43a1,1,0,0,1-.37.77A1,1,0,0,1,167.3,165.33Zm-28.36-8,27.37,5.79v-97l-27.37,5.79Z" fill="#b55a31"/><polygon points="2.65 164.34 12.93 95.73 157.02 95.73 167.3 164.34 2.65 164.34" fill="#faa74a" fill-rule="evenodd"/><path d="M167.34,165.33H2.65A1,1,0,0,1,1.9,165a1,1,0,0,1-.24-.8L12,95.58a1,1,0,0,1,1-.85H157a1,1,0,0,1,1,.85l10.25,68.34a1.17,1.17,0,0,1,.09.42A1,1,0,0,1,167.34,165.33Zm-163.53-2H166.14l-10-66.61H13.79Z" fill="#b55a31"/></g></g></g></svg>