<svg xmlns="http://www.w3.org/2000/svg" viewBox="0 0 166.68 101.41"><g id="Layer_2" data-name="Layer 2"><g id="Layer_1-2" data-name="Layer 1"><rect x="1" y="1" width="164.65" height="99.42" fill="#f8b86e"/><path d="M165.65,101.41H1a1,1,0,0,1-1-1V1A1,1,0,0,1,1,0H165.65a1,1,0,0,1,1,1v99.42A1,1,0,0,1,165.65,101.41ZM2,99.42H164.65V2H2Z" fill="#b55a31"/><polygon points="1 100.42 30.35 94.21 30.35 7.21 1 1 1 100.42" fill="#faa74a" fill-rule="evenodd"/><path d="M1,101.41a1,1,0,0,1-.63-.22,1,1,0,0,1-.37-.77V1A1,1,0,0,1,.37.22,1,1,0,0,1,1.2,0L30.56,6.23a1,1,0,0,1,.79,1v87a1,1,0,0,1-.79,1L1.2,101.39A.68.68,0,0,1,1,101.41ZM2,2.23v97L29.36,93.4V8Z" fill="#b55a31"/><polygon points="165.65 100.42 136.29 94.21 136.29 7.21 165.65 1 165.65 100.42" fill="#faa74a" fill-rule="evenodd"/><path d="M165.65,101.41a.75.75,0,0,1-.21,0l-29.35-6.21a1,1,0,0,1-.79-1v-87a1,1,0,0,1,.79-1L165.44,0a1,1,0,0,1,.84.2,1,1,0,0,1,.37.78v99.42a1,1,0,0,1-.37.77A1,1,0,0,1,165.65,101.41Zm-28.36-8,27.36,5.79v-97L137.29,8Z" fill="#b55a31"/><polygon points="1 100.42 11.28 31.81 155.36 31.81 165.65 100.42 1 100.42" fill="#faa74a" fill-rule="evenodd"/><path d="M165.69,101.41H1a1,1,0,0,1-.76-.34,1,1,0,0,1-.23-.8L10.3,31.67a1,1,0,0,1,1-.85H155.36a1,1,0,0,1,1,.85L166.59,100a1,1,0,0,1-.9,1.41Zm-163.54-2H164.49l-10-66.61H12.14Z" fill="#b55a31"/><polygon points="1 1 11.28 45.76 155.36 45.76 165.65 1 1 1" fill="#faa74a" fill-rule="evenodd"/><path d="M155.36,46.75H11.28a1,1,0,0,1-1-.77L0,1.22A1,1,0,0,1,.22.38,1,1,0,0,1,1,0H165.65a1,1,0,0,1,.78.38,1,1,0,0,1,.19.84L156.34,46A1,1,0,0,1,155.36,46.75Zm-143.29-2h142.5L164.4,2H2.25Z" fill="#b55a31"/><path d="M79.28,36.18a.57.57,0,0,0,0,.14v-.14Zm6.84,34.55,0-.07.19-.08C86.25,70.7,86.22,70.8,86.12,70.73ZM69.33,34.8l0,0c.1.07.2.16.29.11a2.13,2.13,0,0,1,.09.27l-.43.24c0-.59,0,.08-.18-.69,0,0,.11,0,.18,0Zm-2,1.8a3.28,3.28,0,0,0-.44-.79c.47.41,0-.47.24-.41a4.22,4.22,0,0,1,.5,1Zm.85-.55-.45.28a.29.29,0,0,1,.31-.38Zm.71-1.16c-.47-1-.86-.81-1.31-1.37.57-.33,1.15-.64,1.75-.94s.93-.44,1.4-.64l.1.11-.06-.13h0c.66.77,1.08-.06,1.81,1a.89.89,0,0,0-.9.57c.63.59.75-.49,1.47-.09L73.14,33l-.57-.35c.35-.07.38-.63.8-.45.06.36-.14.61,0,.92l.53.25-.4.14h0a25.87,25.87,0,0,0-3,1.27L70,35c-.12-.35-.24-.73-.43-.77.21.39,0,.45-.21.52l0,0-.3-.5c.21.08.26-.08.3-.17s0-.27-.16-.45c-.47-.34-.4.22-.34.53l-.27-.26c0,.32.23.37.34.47l0,.13a.15.15,0,0,0,0-.13l0,0c0-.07.11,0,.16,0C69.17,34.68,69.07,34.8,68.92,34.89Zm2.58-3.26.82-.31C72.13,31.67,71.93,32,71.5,31.63ZM57.26,62.06l1.06-.52L59.49,61,67,57.23l1.24-.62L89.44,46.14l1.25-.62,7.54-3.73,1.17-.58,1-.52,2.33-1.15,5.63-2.78-.56-1.1L102,38.57a25.83,25.83,0,0,0-6.34-5.18c-.07.06-.17,0-.26-.15s0,0,0,.07a.29.29,0,0,0,0-.09l-.24-.14c0,.21-.26-.1,0,.44-.36-.17-.36-.37-.49-.69A26.54,26.54,0,0,0,90.13,31a27.37,27.37,0,0,0-10-1.25v.36l-.1-.36A27.58,27.58,0,0,0,73.43,31c.23.08.39,1.11.54,1.18l-.2,0-.07-.56-.52-.32a1,1,0,0,1,.13-.24l-.42.14c.07.16.14.29.19.09,0,.46.59.95.34,1,.11.15.15.05.26.13l.06.44c.18-.15.27.22.41.5l.93-.27c0-.08.11-.07.21-.06l1.1-.26-.27-.44c-.06-.16.24-.08,0-.4H76.1l.05,0,0,0,.24,0c0,.33.31.23.48.61-.1.12-.14.35-.36-.07-.26-.15-.16.09-.07.32a25.17,25.17,0,0,1,4-.53.36.36,0,0,1,0-.09l.14.09a24.94,24.94,0,0,1,14.58,3.89,1.07,1.07,0,0,0-.13-.21l0,0c-.06-.79.65.06.86.28l0,0c.06.1,0,.09,0,0l-.14.26a24.05,24.05,0,0,1,3.9,3.32l-1.07.53a23.49,23.49,0,0,0-17.2-7,.64.64,0,0,1,0,.07.43.43,0,0,0,0-.07A24.09,24.09,0,0,0,72.64,35c.41.88.58,0,.88.2.06.5-.35.19-.55.3a1.5,1.5,0,0,1-.39-.47c-.54.22-1.08.46-1.61.72s-1,.52-1.48.8c.32,0,.85.46,1.14.47l-.11-.21.41.34L71.3,37c-.38-.57.53,0,0-.66.15,0,.3.26.4.46a23.15,23.15,0,0,1,3.48-1.35.63.63,0,0,1-.34-.08c.09-.19.14-.28-.07-.57.51,0,.35-.06.81-.18a.59.59,0,0,0,.12.67l-.26-.06.08.12a22.77,22.77,0,0,1,13.17.27c-.08-.14-.18-.14-.31-.29a.42.42,0,0,1-.16-.24,1.41,1.41,0,0,0,.16.24c.17.12.38,0,.32.3a21.74,21.74,0,0,1,8.63,5.25L89.58,44.7A14.57,14.57,0,0,0,75,43.79a14.28,14.28,0,0,0-8,12.07L59.26,59.7a21,21,0,0,1,.21-7.3l-.29.17c0-.2.27-.3.3-.22A21.67,21.67,0,0,1,62,45.83c-.13-.08-.26-.19-.26-.34s.29.13.39.12a.75.75,0,0,1,.07-.12L62,45.33a.53.53,0,0,1-.19-.26l.19.26a.25.25,0,0,0,.24,0,22.5,22.5,0,0,1,8.18-7.87L69.91,37l0,0c-.58-.82-.18.57-.71.06a.71.71,0,0,1,0-.36,24.47,24.47,0,0,0-2.55,1.76c0,.14-.16.15-.19.27l-.06-.08a23.14,23.14,0,0,0-8.38,21.63L57,60.81A24.31,24.31,0,0,1,66.84,37h0c.1-.18.3-.3.39-.62-.22-.42-.86-1.21-.77-1.66l-.27-.23a27.15,27.15,0,0,0-8.57,9.21c.05.09.08.14,0,0h0a27.26,27.26,0,0,0-1.61,3.41h0c.05.17-.14.28.07.57s.15,0,.2,0c.16.31-.15.09-.25.21s0,.06.08.1a.2.2,0,0,1,.08.08L56,48c-.17-.14-.28,0-.38-.17a2.09,2.09,0,0,0-.08.23A25.83,25.83,0,0,0,54.64,62L48.75,64.9l.56,1.1,5.62-2.79ZM74.54,32.89c-.22-.18-.35.25-.6-.27l.41.17c-.29-.37-.13-.57-.11-.81s0-.18,0-.19a.65.65,0,0,1,0,.19,1.51,1.51,0,0,1,.06.64l.24.27.08.09ZM77.33,32c-.1-.14-.37-.4-.46-.21L77,32c-.52-.25-.07-.57-.59-.89.25-.07,0-.46.35-.2l-.11-.2a.7.7,0,0,1-.14-.27l.14.27a4.63,4.63,0,0,1,.32.42c0,.07-.37-.27-.46,0,.21.09.48.54.63.46C77.27,31.7,77.28,31.89,77.33,32Zm-.23-1.8h0l0,0,.27.09A.64.64,0,0,1,77.1,30.2Zm2.6.95a.35.35,0,0,1,.06-.09A.08.08,0,0,1,79.7,31.15Zm.59-.1a1.1,1.1,0,0,1,.43.33A2,2,0,0,1,80.29,31.05Zm1.62,0h0a.59.59,0,0,1,.23,0Zm-.13-1.18s0,0,0-.06S81.79,29.83,81.78,29.83Zm9.54,1.76a.69.69,0,0,0,0-.13h.15Zm2.91,3.09L94,34.27c-.05,0-.1.12-.26-.06L94,34ZM96,35a1.15,1.15,0,0,0-.12-.47l.47.34C96.17,34.88,96.23,35.05,96,35Zm-19.2-.11c0-.13,0-.39-.17-.38-.11-.4.35-.13.51-.14-.22-.42-.21,0-.27-.46a1.87,1.87,0,0,1,.84.94C77.42,34.52,77.17,34.86,76.82,34.85Zm5.27-.79c.2-.11-.34-1,.13-.55C82,33.62,82.44,34.06,82.09,34.06Zm1.84.18a.29.29,0,0,1,.21-.12Zm2.81,0h.06Zm4.19,1.41h0C91,35.69,91,35.68,90.93,35.65ZM75.29,44.08c.06.23-.2.18-.3.1C74.93,43.94,75.19,44.13,75.29,44.08Zm-7.2-6.57.31.1c0,.42-.09.32-.39.35l.35-.19C68.24,37.43,68,37.7,68.09,37.51ZM61,46.57a.22.22,0,0,0,.18-.26l-.12-.26a.55.55,0,0,1,.12.26l.15.33L61,46.57a.35.35,0,0,1-.18,0Zm4.89-11.33-.2,0L65.57,35Zm-.63,1c.31,0,.11.34.27.59C65.11,36.62,65.52,36.53,65.25,36.2Zm-2,1.08.37.4-.37-.26ZM58,43.66l.36.2L58,43.79Zm.8,1c-.25,0-.25.07-.55.18C58.1,44.66,58.44,44.27,58.76,44.7Zm-.93,2.61c-.35.13-.78-.37-1.24-.52C56.82,45.92,57.47,47.11,57.83,47.31ZM56.09,47l.21.22-.15.15C56.15,47.24,56.19,47.15,56.09,47Zm-.35,1.68s0,.33.14.44l.08,0a.1.1,0,0,1-.08,0l-.18-.08a.19.19,0,0,0,0,.07l0,0c.13.1,0,.06,0,0C55.51,48.89,55.69,48.84,55.74,48.69Zm-.41,6.17c-.2-.09-.24.27-.46-.08C55,54.56,55,54.63,55.33,54.86Zm15.85-23.1.28-.11c.21.33,0,.4-.13.48A2,2,0,0,0,71.18,31.76Zm24.18,1.48ZM68.29,36a.57.57,0,0,0-.22,0c-.12-.1-.24-.22-.29-.22-.12-.75.4.26.36-.15a1.09,1.09,0,0,0,.29.33Zm.46-.27v-.06l0,0Zm35,35.1-.18.25a1.11,1.11,0,0,1-.24-.42C103.53,70.89,103.64,70.85,103.75,70.82ZM73.06,81.65l-.06,0S73,81.63,73.06,81.65Zm1.26.34-.19,0C74.19,81.84,74.25,81.89,74.32,82Zm14-.26a.25.25,0,0,1,.09-.09.14.14,0,0,0,0,.06Zm25-35.3-5.63,2.78-2.33,1.15-1,.52-1.17.58-2.25,1.11a.54.54,0,0,1,.12.15c-.13.2-.14.16-.37,0l-5.05,2.49-1.24.62L73.16,66.28l-1.24.62-6.73,3.33,0,0,0,0-.36.18.1.22c-.14.14-.26.06-.37-.09l-.19.09-1.17.58-1.05.52L59.9,72.85,60,73l-.15-.12-5.62,2.78.56,1.1,5.89-2.92a.86.86,0,0,0,.13.14h0a.63.63,0,0,1,.39.43c.42.44.85.87,1.29,1.28a1,1,0,0,1,.21-.07l0,0,.63.66-.06,0a26.27,26.27,0,0,0,6,3.83.28.28,0,0,0,0-.1l.08.14c.46.22.92.42,1.4.6l-.24-.35c.31.1-.14-1,.39-.42,0,.33-.4.22-.12.74l.11.09c.55.22,1.12.42,1.69.6l.3.09h0c-.12-.61-.46-.08-.63-.59l.09-.26c.22.35.06.17,0,.23a.46.46,0,0,0,.61.19l0,.36c.35.38.25-.33.34.18l.81.22a.73.73,0,0,1-.08-.33,1,1,0,0,1,.78.44l-.17-.44c.57.35.6-.34,1.07-.06a2.63,2.63,0,0,0-.7.6,27.53,27.53,0,0,0,11.78.05.15.15,0,0,1,0-.17.73.73,0,0,0,.16.14l.26-.05,0-.51c1,.63.59-.53,1.47-.15-.27-.52-.74-.73-.75-1.13.2-.24.15-.08.41,0l-.3.17c.46.08.68.69,1.13.44l-.18-.4c.24.44.83-.14,1,.75l.57-.2v0s0,0,0,0a29.22,29.22,0,0,0,2.89-1.24,27.93,27.93,0,0,0,6.54-4.47c-.08,0-.17,0-.27-.21.11-.23.26-.08.41.08l.48-.46a.9.9,0,0,0-.27-.72c-.1,0,0,.23,0,.29a2.88,2.88,0,0,1-.9-1c.2,0,.16.18.53.51,0,0,.15-.08,0-.23a2.42,2.42,0,0,0,.71.37l0-.06c0-.1.16,0,.26.12l-.22-.06.26.5a26.28,26.28,0,0,0,2.76-3.29c-.2-.09-.32-.33-.61-.26l.21.35c-.07.23-.3.15-.44.19l.31.29-.16,0-.16-.31c-.1,0-.16.14,0,.55l-.28-.72c.28.08.33-.29.64-.11a2.28,2.28,0,0,1-.37-.79c.48.54.77.05,1.13.05a.19.19,0,0,1,.22.08,26.71,26.71,0,0,0,4.27-10.93c-.33-.15-.36.21-.69-.26a.63.63,0,0,0,.75-.21,26.2,26.2,0,0,0,.22-4.24l-.2,0v-.13c.07,0,.13,0,.2,0a25.33,25.33,0,0,0-.53-4.25l5.89-2.91ZM61.86,73.49l-.22-.68.21.42s.1-.12.26.06ZM96.39,55.1l.3-.17C96.64,55.15,96.34,55.26,96.39,55.1Zm-4,5.37.51.12.08.63c0-.26-.53-.65-.53-.38Zm0,.29V61l-.25.08Zm.27.39.32.5c-.06-.17,0,0,.1,0-.14.41-.62-.2-.87-.12C92.11,61.07,92.42,61.43,92.57,61.15Zm-1.92,2,.21.15-.31,0Zm-1.73-1.46v.26l-.26-.06ZM87.4,64.93c.06.23.42.43.52.45l0-.11,0,.11h0c.11.21.25.52.38.73l-.06-.44c.22.49.29-.43.41.17-.32-.36-.14.29,0,.49a2.42,2.42,0,0,1-1.51-1Zm-2.14,1.6h.46l-.4.22Zm-.46,0c.06,0,.26.13.22.22-.21-.15-.19.44-.45.32C84.5,66.68,84.77,66.94,84.8,66.58ZM83.07,65c.25-.08.43.5.33.62l.47.42c-.25,0-.48-.48-.57-.36Zm-2.2-1.68c.06.24-.2,0-.3.11C80.52,63.18,80.77,63.24,80.87,63.31Zm1.65,4.89-.09.32.36.27v-.07l.31.3c-.24.27-.5.15-.77-.31S82.26,68.21,82.52,68.2Zm-5.08-2.14v0l.11.08a.45.45,0,0,0-.12-.06.8.8,0,0,0,.19.69L77,66.23C77.17,66.25,77.26,66,77.44,66.06Zm-1.14-.93c.21.16.46,0,.63.53l-.72-.34Zm-.22.87L76,65.57c.17.51.41,0,.62.26.17.44.07.63-.19.44.27.39.53.58.55,1.11l-.26-.12c.09-.32-.22-.62-.44-1s-.72-.08-1-.6C75.76,65.78,75.6,65.59,76.08,66Zm-1.83.22c0,.26.11.34-.09.32C73.84,66.11,74.15,66.27,74.25,66.22Zm-7.62,3.53a.72.72,0,0,1,.06.3l-.27-.33C66.47,69.63,66.58,69.71,66.63,69.75Zm.07,1.1c-.11-.22-.21-.46-.26-.53l0-.24.48.69.74-.36a.54.54,0,0,1,0-.11h0a1.17,1.17,0,0,1,.05.11l1.68-.83v-.26c0-.11-.06-.2,0-.12a.49.49,0,0,0,0,.12.55.55,0,0,1,0,.24L73,67.73a14.57,14.57,0,0,0,2.71,1.42c.19-.21.37-.43.7-.24l.09.52a14.58,14.58,0,0,0,7.79.36l-.14-.08-.08,0a.13.13,0,0,1,.08,0c.16,0-.15-.42.17-.3a.64.64,0,0,0-.21-.22l.3-.1.54.54a15.4,15.4,0,0,0,2.61-1A14.41,14.41,0,0,0,94,62.37l-.16-.21c-.21-.12-.35.31-.53-.27.16.25.25,0,.35-.07-.11-.14-.15,0-.26-.12l.25-.14c.15,0,.52.18.53.45-.15.08-.42-.31-.46,0l.12.16a.51.51,0,0,1,.17.2c.22-.43.43-.88.61-1.34l-.07-.16.12,0a13.89,13.89,0,0,0,.91-4.31l7.76-3.84a21.55,21.55,0,0,1-2.66,13.81,1,1,0,0,1,.25,1c-.25.24-.39-.2-.59-.43l-.18.31c.06.09.13.15.15.14-.08.21-.14.15-.34.14l0,0a.35.35,0,0,0,.07.11c.06,0,.1,0,.12,0s-.07.05-.12,0l-.13,0-.06.09a.77.77,0,0,0,.11.17c-.12,0-.21.06-.3.11a23.25,23.25,0,0,1-1.75,2.21l.09.06-.18,0-.09.1c.23.24.22.85-.11.49-.16-.11.35,0,.09-.39l0,0c-.4.43-.83.85-1.27,1.25.06.11.16.23.14.32l-.32-.15-.08.07c.18.23.53.31.36.63l.2-.11c.19,1-.56,0-.87,0a1.84,1.84,0,0,1,0-.25l-.27.24a.14.14,0,0,1,0,.06s-.08,0-.11,0a23.31,23.31,0,0,1-2.38,1.72c.07.37-.08.25-.24.14a18.2,18.2,0,0,1-1.79,1l-.07,0,.06.17-.2-.1a22.55,22.55,0,0,1-25.61-4.09Zm31.74-.16.31.3-.25.14C98.4,70.92,98.55,70.9,98.44,70.69ZM83.76,78l.36.13c-.2,0,0,.4-.29.17A.76.76,0,0,0,83.76,78Zm-4.81.6a.13.13,0,0,1-.11.1C78.84,78.67,78.85,78.62,79,78.64ZM75.7,77.42l.11.41h-.1Zm-1.61.25a.43.43,0,0,0,0,0S74.07,77.67,74.09,77.67Zm-9.16-5.82h0C64.86,71.81,64.88,71.82,64.93,71.85ZM64.45,76l.09-.12a1.39,1.39,0,0,0,.06.13Zm12.37,4.61v-.13h.25Zm7,1.53-.62-.46c0-.36.2.16.35,0l-.11-.21C83.63,81.75,83.84,81.84,83.85,82.17Zm.09-.32v-.46l.26.19C84.2,81.84,83.94,81.79,83.94,81.85Zm1-.4-.2.12c-.16-.25-.57-.3-.59-.76,0,.09-.46,0-.14.35l-.42-.44c.19-.44.71.14,1,.43-.06-.3,0-.19.15-.21Zm2.31-1.1h0l-.24,0c.25.06-.22-.42.13-.41.06.16,0,.29.11.46h0s0-.08.1,0Zm2.78.32-.23.08c-.16-.39.09-.16.23-.08l.07,0C90.08,80.72,90,80.71,90,80.67Zm5.73-3c.14-.29.65-.24.32-1.06l.43.7.1-.05C96.53,77.57,96,77.68,95.72,77.62Zm.13-1.68,0,0-.21-.15.19.11,0-.06.42.3Zm.78.15c0-.1-.26-.39-.11-.41s.21.09.1.14c.17.38.27.13.42.31Zm.49-1-.07-.13s.07.07.07.13l.21.39C97.11,75.41,97.14,75.19,97.12,75Zm1.35,1.17-.12-.68c.22.56.42.31.62.4Zm3-5.21.14-.15.22.42Zm.61-1.73c-.12,0,.15.5-.2.35-.15-.46,0-.47.2-.35a.21.21,0,0,1,.09,0ZM104,67.16l0,0c0,.26-.27.38-.51.08a.1.1,0,0,1,0-.06l0,.06c.12.1.41,0,.36-.15l.15.07v0l0,0a1.19,1.19,0,0,1,.76.6C104.52,67.89,104.26,67.47,104,67.16Zm.76-.07a.56.56,0,0,1,.14.32l-.14-.32c-.15-.15-.35-.07-.55-.44,0,0,0-.63-.28-.79a3.81,3.81,0,0,1,1.25.92l-.45.25Zm.66-2.27-.36-.14c.21,0,.21,0,0-.33.15,0,.14-.48.36,0C105,64.05,105.47,64.73,105.42,64.82Zm1.72-2.34c-.18-.07.11.34-.1.29.25,0,0,.26.11.41a.84.84,0,0,1-.33-.9l-.06,0,.38.23a1,1,0,0,1,.19.12Zm.24-.17c-.16-.25,0-.53.14-.42C107.68,62.2,107.64,62.56,107.38,62.31Zm-2.66,1a.65.65,0,0,0,.25,0c-.28-.59.4-.16.33-.66a6.51,6.51,0,0,0,1.44.28c-.16,0,.21.42,0,.53l.16.11c0,.53-.36-.27-.45.19.5,1.2-.85.54-.36,1.35-.88-.32-.15-1.27-1.13-1.6-.4,0,.23.55,0,.49l-.22-.35c.11.27,0,.27-.2.22A24.62,24.62,0,0,1,97.3,74.25c.14.06.15.31.15.44l-.31-.17.12-.24c-.18.16-.38.32-.57.47.11.25.11.62.32.45,0,.13,0,.53-.19.25l-.07-.37L96.37,75l-.29.22L96,75.5l-.1-.15-.35.26a.11.11,0,0,1-.14.1L95,76l.1.07.12.09L95.14,76c-.19-.09.13.49-.23.28L95,76h0a25.85,25.85,0,0,1-2.82,1.62,25.19,25.19,0,0,1-17,2,.22.22,0,0,1-.19.11.66.66,0,0,0,0,.11l.06,0c0,.09,0,.09-.06,0-.22.11-.28-.14-.38-.35l-.28-.08c0,.11-.28-.07-.36-.08v0a24.26,24.26,0,0,1-11-6.63l1.07-.52a23.8,23.8,0,0,0,27.56,4.49c.5-.24,1-.5,1.44-.77,0-.12,0-.21.14-.23l0,.13c.37-.22.73-.45,1.09-.69l0,0h0a23.19,23.19,0,0,0,10.17-22.93l1.07-.53A23.71,23.71,0,0,1,104.72,63.32Zm2.5-13.21c0-.13.15-.28.41,0C107.48,50.1,107.38,50.35,107.22,50.11Zm1,9.3a.27.27,0,0,1,0-.22Zm-15.18,15,0,0A.05.05,0,0,1,93.06,74.45ZM64.71,68.86v0l.06.07,0,0Z" fill="#dc303b"/><path d="M55.85,68.18A2.12,2.12,0,0,1,57,69.28a2.26,2.26,0,0,1,.26,1.25,2.15,2.15,0,0,1-.51,1.16,3.84,3.84,0,0,1-1.28.94,5.19,5.19,0,0,1-1.18.43,7.52,7.52,0,0,1-1.14.19l-.79-1.58a4.93,4.93,0,0,0,2-.43,1.16,1.16,0,0,0,.55-.48.7.7,0,0,0-.06-.62.67.67,0,0,0-.32-.34.53.53,0,0,0-.47,0,.55.55,0,0,0-.28.26.8.8,0,0,0-.06.39l-1.6.78-1.4-3.61,4.06-2,.72,1.43L53,68.34l.32.8a2.7,2.7,0,0,1,1-.81A1.88,1.88,0,0,1,55.85,68.18Z" fill="#dc303b"/><path d="M58.4,71.05l-.61-1.21.74-.36-1.67-3.33-1,.48-.42-.84L57,64.58,58.27,64l2.27,4.54.65-.31.6,1.21Z" fill="#dc303b"/><path d="M65.77,64.34a1.42,1.42,0,0,1,.76.75,1.56,1.56,0,0,1,0,1.59,3.92,3.92,0,0,1-1.72,1.37,4.11,4.11,0,0,1-2.15.54,1.57,1.57,0,0,1-1.28-.91,1.45,1.45,0,0,1-.13-1.1,2,2,0,0,1,.54-.89,1.76,1.76,0,0,1-.91-.12,1.32,1.32,0,0,1-.68-.68,1.49,1.49,0,0,1,0-1.5,4.72,4.72,0,0,1,3.61-1.77,1.5,1.5,0,0,1,1.21.9,1.4,1.4,0,0,1,.17.93,1.45,1.45,0,0,1-.4.75A2,2,0,0,1,65.77,64.34Zm-3.58-.16a.51.51,0,0,0,.77.24.5.5,0,0,0,.27-.75.52.52,0,0,0-.78-.26A.51.51,0,0,0,62.19,64.18Zm2.23,1.67a.68.68,0,0,0-.38-.37.66.66,0,0,0-.81,1,.59.59,0,0,0,.89.3A.58.58,0,0,0,64.42,65.85Z" fill="#dc303b"/><path d="M69.24,64.23l.38-.19L68,60.72l-.38.18L67,59.69l3.35-1.64A2.71,2.71,0,0,1,72,57.72a1.79,1.79,0,0,1,1.19,1.07,1.75,1.75,0,0,1,.14,1.58,2.58,2.58,0,0,1-1.3,1.15l-.83.41L71.76,63l.74-.36.6,1.22-3.25,1.59ZM71,60.75a.44.44,0,0,0,.21-.69L71,59.8a.55.55,0,0,0-.29-.31.51.51,0,0,0-.39,0l-.26.13.6,1.21Z" fill="#dc303b"/><path d="M75.9,61.72a3.32,3.32,0,0,1-.47-6.3A2.93,2.93,0,0,1,79.84,57a3.43,3.43,0,0,1-3.94,4.76Zm2.18-2a.65.65,0,0,0-.08-.47L76.88,57a.65.65,0,0,0-.34-.35.71.71,0,0,0-.77.38.61.61,0,0,0,.07.48L77,59.77a.64.64,0,0,0,.34.35.72.72,0,0,0,.78-.39Z" fill="#dc303b"/><path d="M85,50.84l2.45-1.2.6,1.21-.3.15,1.13,5.09-2.28,1.12-2.3-2.85-.07,0L85.13,58l-2.28,1.12-3.49-3.94-.31.15-.6-1.21,2.83-1.39.6,1.21-.29.15,1.24,1.73.08,0-.82-3.46,2.2-1.07L86.51,54l.07,0-.64-2-.29.15Z" fill="#dc303b"/><path d="M90.61,55.27,90,54.05l.39-.18-1.67-3.33-.38.19-.61-1.21L92.89,47,94,49.22l-1.71.84-.51-1-.93.45.59,1.17.67-.33.42.84-.67.33.66,1.32.92-.45-.58-1.17,1.71-.84,1.19,2.38Z" fill="#dc303b"/><path d="M95.45,51.38l.39-.18-1.67-3.33-.38.19-.61-1.21,3.51-1.72a2.78,2.78,0,0,1,1.7-.35,1.69,1.69,0,0,1,1.16,1,1.92,1.92,0,0,1,.22,1,1.23,1.23,0,0,1-.34.79l0,.07a.88.88,0,0,1,1.17.51l.28.57.36-.18.61,1.22-2.42,1.18-.87-1.73a1,1,0,0,0-.31-.4.47.47,0,0,0-.37-.06,1.8,1.8,0,0,0-.56.21l.6,1.21.51-.25.61,1.21-3,1.49Zm1.88-3.55a.48.48,0,0,0,.28-.28.59.59,0,0,0-.07-.41l-.14-.26a.55.55,0,0,0-.29-.31.51.51,0,0,0-.39,0l-.41.2L96.92,48Z" fill="#dc303b"/><path d="M102.72,48.83a2.23,2.23,0,0,1-1.49-1.34L100,45l-.38.19L99,44l2.82-1.38.61,1.21-.31.15,1.43,2.85a.59.59,0,0,0,.29.31.61.61,0,0,0,.67-.33.59.59,0,0,0-.07-.41L103,43.54l-.31.14-.6-1.21,2.62-1.28.61,1.21-.39.19,1.24,2.47a2.22,2.22,0,0,1,.2,2,3.18,3.18,0,0,1-1.57,1.4A3.27,3.27,0,0,1,102.72,48.83Z" fill="#dc303b"/><path d="M107.28,45.59l.38-.19L106,42.08l-.38.18L105,41.05l3.36-1.64a2.71,2.71,0,0,1,1.71-.33,1.8,1.8,0,0,1,1.18,1.07,1.75,1.75,0,0,1,.15,1.58,2.63,2.63,0,0,1-1.3,1.15l-.84.41.54,1.06.73-.35.61,1.21-3.26,1.59ZM109,42.11a.45.45,0,0,0,.2-.69l-.13-.26a.59.59,0,0,0-.29-.31.51.51,0,0,0-.39,0l-.26.13.61,1.21Z" fill="#dc303b"/><path d="M65.67,51.06a3.21,3.21,0,0,1-2.1-.5c-1.6-.87-2-1.93-1.37-3.17a2.92,2.92,0,0,1,.61-.77,2.05,2.05,0,0,1,.62-.41l1.49.81-.63,1.14-.43-.23a.62.62,0,0,0-.38-.1.31.31,0,0,0-.24.18.33.33,0,0,0,0,.3.63.63,0,0,0,.29.26l1.8,1a.62.62,0,0,0,.38.1.37.37,0,0,0,.27-.48.7.7,0,0,0-.29-.27l-.49-.26.64-1.14,1.54.84a2.09,2.09,0,0,1,0,.74A2.68,2.68,0,0,1,67,50,2,2,0,0,1,65.67,51.06Z" fill="#dc303b"/><path d="M69.45,44.8l.15-.16.83.72L69,47l-.84-.73.22-.24-.47-.29-.48.56.35.42.21-.25.84.73-1.22,1.4-.84-.73.14-.16-2.53-3.42,1.3-1.49ZM67,45.71l.33-.38-1.16-.72,0,0Z" fill="#dc303b"/><path d="M69.73,44.54l.22-.16-1.79-2.47-.22.16-.65-.9,1.92-1.41a1.42,1.42,0,0,1,1.09-.33,1.66,1.66,0,0,1,1,.77,1.69,1.69,0,0,1,.42,1.2,1.48,1.48,0,0,1-.65.94l-.47.35.57.79.42-.31.65.9-1.87,1.37Zm.46-2.74q.25-.18,0-.54l-.14-.19a.5.5,0,0,0-.26-.22.26.26,0,0,0-.25,0l-.15.11.65.9Z" fill="#dc303b"/><path d="M73.49,43.25l-.49-1,.24-.12L71.9,39.39l-.24.12-.49-1L73,37.58l.49,1-.24.12,1.34,2.74.24-.12.5,1Z" fill="#dc303b"/><path d="M78.18,37.54l-.9.27-.14-.51-.34.11.87,2.93.36-.11.32,1.07L76.17,42l-.31-1.06.36-.12-.87-2.93L75,38l.15.51-.89.28-.46-1.58L77.71,36Z" fill="#dc303b"/><path d="M82.43,39.54l.21,0,.13,1.12-2.1.27-.13-1.11.32,0-.14-.53-.73.09,0,.55.32,0,.13,1.11-1.83.24-.13-1.11.22,0,.43-4.28,2-.25Zm-2.41-1,.5-.07-.38-1.32h0Z" fill="#dc303b"/><path d="M82.75,40.67l0-1.12h.27l.14-3.07h-.27l0-1.12,2.27.06-.05,1.12h-.5l-.13,3.07.48,0,0-.63,1.07,0-.08,1.75Z" fill="#dc303b"/><path d="M75.43,75.11l.33,0L76,72.3l-.33,0,.08-1,3,.25a2.14,2.14,0,0,1,1.26.44,1.27,1.27,0,0,1,.36,1.12,1.5,1.5,0,0,1-.24.72.93.93,0,0,1-.53.38v.07a.67.67,0,0,1,.57.79l0,.49.31,0-.08,1-2.08-.17.12-1.48a.77.77,0,0,0,0-.37.35.35,0,0,0-.22-.19,1.86,1.86,0,0,0-.45-.09l-.08,1,.43,0-.08,1-2.59-.21Zm2.65-1.6a.36.36,0,0,0,.29-.07.42.42,0,0,0,.12-.3l0-.22a.44.44,0,0,0-.07-.32.39.39,0,0,0-.28-.12l-.35,0-.08,1Z" fill="#dc303b"/><path d="M81.23,76.54l-.13-1,.33,0-.35-2.82-.33,0-.12-1,4.39-.5L85.26,73l-1.46.17-.11-.86-.79.09.13,1,.57-.07.09.72-.58.06.14,1.12.79-.09-.12-1L85.37,74l.25,2Z" fill="#dc303b"/><path d="M90.67,72.53l-.3.12.48,1.18a3.93,3.93,0,0,1-.67.57,5.38,5.38,0,0,1-1.07.55,2.74,2.74,0,0,1-2,.13,2.47,2.47,0,0,1-1.38-1.53,2.44,2.44,0,0,1-.1-2,2.89,2.89,0,0,1,1.61-1.3,5.45,5.45,0,0,1,1.13-.31,3.34,3.34,0,0,1,.86,0l.58,1.41-1.52.6-.12-.28a.54.54,0,0,0-.25-.31.52.52,0,0,0-.38,0,.48.48,0,0,0-.29.24.53.53,0,0,0,0,.4l.7,1.71a.51.51,0,0,0,.25.31.47.47,0,0,0,.38,0,.48.48,0,0,0,.3-.25.56.56,0,0,0,0-.39l0,0-.33.13-.36-.88,2.16-.85Z" fill="#dc303b"/><path d="M92,73.42l-.61-.84.26-.19L90,70.08l-.27.18-.61-.84,2-1.44.61.85-.26.19,1.68,2.31.27-.19L94,72Z" fill="#dc303b"/><path d="M94.85,70.63a2.62,2.62,0,0,1-1.9-.81,2.2,2.2,0,0,1-.28-3.54,2.23,2.23,0,0,1,3.58-.17,2.2,2.2,0,0,1,.28,3.54A2.57,2.57,0,0,1,94.85,70.63Zm1-2a.44.44,0,0,0-.19-.32L94.17,67a.49.49,0,0,0-.34-.15.46.46,0,0,0-.31.17.43.43,0,0,0-.13.33.48.48,0,0,0,.19.31L95,68.93a.48.48,0,0,0,.34.15.43.43,0,0,0,.31-.17A.42.42,0,0,0,95.81,68.59Z" fill="#dc303b"/><path d="M96,61.35l1-1.89.92.49-.15.28L101.26,62l-.85,1.62L97,64l1.62.84.15-.27.92.48-1,1.89-.93-.49.16-.28-2.55-1.33-.15.29-.93-.49,1.09-2.07,3.07-.33-1.34-.7-.15.27Z" fill="#dc303b"/></g></g></svg>