<svg xmlns="http://www.w3.org/2000/svg" viewBox="0 0 353.12 358.71"><g id="Layer_2" data-name="Layer 2"><g id="Ebene_1" data-name="Ebene 1"><path d="M176.56,0a176.56,176.56,0,0,0-108,316.26C58.07,331.13,41.9,349,23.25,357.48c0,0,40.28,7.85,90.14-16A176.58,176.58,0,1,0,176.56,0Z" fill="#518630"/><path d="M177.15,195.89c-1.3,0-87.71-69.61-87.71-69.61v123h176v-123S178.46,195.89,177.15,195.89Z" fill="#fff"/><path d="M266.07,117.24H91.4s85.76,69.6,87,69.6S266.07,117.24,266.07,117.24Z" fill="#fff"/><path d="M124.7,200.46l-.06.1,0-.11Zm-3.57,29.11v-.06h.17C121.25,229.58,121.2,229.65,121.13,229.57Zm-3.7-32.82h0c.06.08.12.17.19.16a2.09,2.09,0,0,1,0,.24l-.4.07c.18-.46,0,.06,0-.59,0,0,.09,0,.13.07Zm-2,.91a2.92,2.92,0,0,0-.14-.74c.26.44.11-.37.29-.26a4.48,4.48,0,0,1,.14.92Zm.79-.22-.41.11c0-.23.19-.27.33-.22A1,1,0,0,0,116.25,197.44Zm.85-.72c-.12-.88-.46-.87-.66-1.43.52-.11,1-.2,1.58-.28s.82-.11,1.24-.14l0,.11,0-.11h0c.31.78.84.24,1.12,1.3a.71.71,0,0,0-.83.21c.33.64.69-.18,1.15.32l.06-.36-.35-.43c.29,0,.46-.39.73-.14,0,.31-.26.45-.21.74l.34.34H121l-.1,0,.1,0a20,20,0,0,0-2.67.2l-.43.07c0-.31,0-.64-.13-.72.06.36-.16.34-.3.36l0-.05-.1-.48c.14.13.22,0,.28-.05s.06-.21,0-.4c-.27-.39-.36.07-.39.33l-.14-.27c-.1.24.08.35.14.46v.11a.11.11,0,0,0,0-.11v0c0-.05.07,0,.1.08C117.34,196.62,117.23,196.69,117.1,196.72Zm2.8-1.9.71,0C120.38,195,120.14,195.22,119.9,194.82Zm-18.68,20.31,1-.14,1-.15,6.73-1,1.12-.16L130,211l1.12-.16,6.73-1,1-.15.94-.13,2.09-.3,5-.72-.15-1-5.26.76a21.71,21.71,0,0,0-3.53-5.76c-.07,0-.12-.07-.17-.19l0,0a.15.15,0,0,1,0-.07l-.15-.18c-.08.16-.18-.14-.1.35-.24-.22-.18-.39-.2-.67A22.23,22.23,0,0,0,127,195.58l-.08.29v-.31a21.8,21.8,0,0,0-5.4-.77c.15.13,0,1,.11,1.07l-.15-.07.09-.46-.31-.39a.52.52,0,0,1,.16-.15h-.37c0,.15,0,.27.13.12-.11.37.21.91,0,.9,0,.14.11.08.17.17l-.07.36c.17-.07.15.24.19.51q.39,0,.78,0c0-.06.1,0,.18,0l.9.08-.09-.42c0-.14.2,0,.14-.31h0l.19.05c-.07.26.18.26.21.6-.1.08-.19.24-.25-.14-.17-.19-.15,0-.14.23a19.32,19.32,0,0,1,3.22.64.25.25,0,0,1,0-.08.45.45,0,0,1,.09.1,20.21,20.21,0,0,1,10.18,6.91.9.9,0,0,0,0-.19h-.05c.15-.65.48.22.59.45l0,0c0,.1,0,.08,0,0l-.18.16a19,19,0,0,1,2.14,3.65l-1,.14A19.16,19.16,0,0,0,127,198.69v.06s0,0,0-.06a18.91,18.91,0,0,0-7.1-.89c.09.8.44.18.62.38-.07.42-.31.07-.5.1a1.34,1.34,0,0,1-.17-.48c-.47,0-1,.08-1.42.15s-.9.15-1.34.24c.23.13.54.59.75.68l0-.2a4.23,4.23,0,0,1,.23.38l.33-.05c-.14-.55.4.16.19-.53.1.05.16.29.18.48a18,18,0,0,1,3-.16.46.46,0,0,1-.24-.15c.12-.12.18-.19.09-.47.39.12.29.05.67.07a.51.51,0,0,0-.08.56l-.18-.11,0,.12a18,18,0,0,1,10,3.67c0-.13-.1-.15-.16-.31a.42.42,0,0,1-.06-.23,1.84,1.84,0,0,0,.06.23c.1.14.3.08.17.32a18,18,0,0,1,5.28,6.42l-6.93,1a11.58,11.58,0,0,0-20.14,2.89l-6.93,1a18.09,18.09,0,0,1,2-5.71l-.27.06c.08-.15.29-.17.29-.1a18,18,0,0,1,3.56-4.5.38.38,0,0,1-.11-.34c.1,0,.18.18.26.2l.08-.07,0-.16a.6.6,0,0,1-.08-.26l.08.26c.06.06.13,0,.19,0a17.82,17.82,0,0,1,8.28-4.06l-.3-.47h0c-.24-.8-.29.41-.56-.13a.7.7,0,0,1,.09-.29,18.54,18.54,0,0,0-2.4.72c0,.12-.16.08-.22.17l0-.08a19.14,19.14,0,0,0-11.94,14.89l-1,.13A20.07,20.07,0,0,1,115,197.81l0,0c.12-.12.31-.16.46-.39-.06-.39-.35-1.18-.17-1.51a2.15,2.15,0,0,0-.14-.26,21.84,21.84,0,0,0-8.93,5c0,.08,0,.13,0,0h0a22.57,22.57,0,0,0-2.11,2.26h0c0,.15-.18.18-.09.46s.12,0,.15.07c0,.29-.14,0-.24.1a.29.29,0,0,1,0,.11.15.15,0,0,1,0,.08l0-.08c-.1-.16-.23-.06-.25-.24l-.12.16a21.93,21.93,0,0,0-4.28,10.77l-5.25.75.14,1,5-.72Zm20.69-18.51c-.12-.21-.33.1-.39-.38l.27.25c-.13-.37,0-.49.12-.67s0-.16,0-.16a.42.42,0,0,1,0,.16,1.08,1.08,0,0,1-.12.52l.12.28a.39.39,0,0,1,0,.09Zm2.37,0c0-.14-.18-.42-.3-.3l.06.25c-.34-.34.09-.47-.23-.86.21,0,.11-.37.32-.06l0-.19a.59.59,0,0,1,0-.25l0,.25a4.17,4.17,0,0,1,.13.42c0,.05-.21-.31-.34-.13.13.12.22.55.36.52S124.26,196.55,124.28,196.65Zm.28-1.49h0l0,0,.19.14S124.63,195.23,124.56,195.16Zm1.75,1.43.07-.05S126.34,196.6,126.31,196.59Zm.48.08a1.14,1.14,0,0,1,.25.38A2,2,0,0,1,126.79,196.67Zm1.25.4h0a.44.44,0,0,1,.16.1Zm.2-1,0,0S128.25,196.1,128.24,196.1Zm6.87,3.9a.49.49,0,0,0,0-.12l.12.05Zm1.44,3.21-.06-.38c-.05,0-.11.07-.19-.12l.25-.1Zm1.3.69a.82.82,0,0,0,0-.4l.27.39C138,203.88,138,204,137.85,203.9Zm-14.69-5.13c0-.11.09-.32,0-.35,0-.35.3,0,.42,0-.06-.39-.15-.07-.09-.43a1.55,1.55,0,0,1,.41,1C123.7,198.66,123.43,198.86,123.16,198.77Zm4.24.76c.18,0,0-.85.24-.4C127.46,199.16,127.67,199.62,127.4,199.53Zm1.36.62a.21.21,0,0,1,.2,0Zm2.16.74h0Zm2.86,2.22h0S133.81,203.15,133.78,203.11Zm-14.15,2.55c0,.2-.19.09-.25,0S119.54,205.67,119.63,205.66Zm-3.84-7.09.21.16c-.13.33-.15.23-.39.18l.32-.06C115.93,198.54,115.67,198.7,115.79,198.57ZM108,203.86c.09,0,.17,0,.2-.15l0-.24a.42.42,0,0,1,0,.24l0,.3-.23-.15a.23.23,0,0,1-.13-.08Zm6.63-7.66-.16,0,0-.25Zm-.73.59c.23.1,0,.3.07.54C113.73,197.08,114.07,197.12,113.94,196.79Zm-1.84.32.18.41-.22-.31Zm-5.64,3.66.22.25-.25-.15Zm.34,1c-.19-.06-.21,0-.47,0C106.3,201.6,106.67,201.38,106.8,201.8Zm-1.38,1.82c-.3,0-.5-.5-.82-.74C105,202.26,105.19,203.37,105.42,203.62Zm-1.25-.7.1.23-.15.08C104.15,203.12,104.21,203.06,104.17,202.92Zm-.7,1.24s-.07.27,0,.39l.05,0a.12.12,0,0,1-.05,0l-.11-.12a.13.13,0,0,0,0,.06l0,0c.07.1,0,0,0,0C103.24,204.26,103.39,204.27,103.47,204.16Zm-1.89,4.77c-.13-.13-.25.15-.33-.19C101.42,208.61,101.4,208.66,101.58,208.93Zm18-14.09.24,0c.07.32-.11.32-.23.35A1.64,1.64,0,0,0,119.63,194.84Zm18.15,7.53Zm-21.45-5a.51.51,0,0,0-.16-.09,1.13,1.13,0,0,0-.17-.25c.11-.63.24.31.32,0a.78.78,0,0,0,.14.33Zm.42-.09v0Zm17.88,36.94-.21.16a1.09,1.09,0,0,1-.07-.39C134.44,234.27,134.53,234.27,134.63,234.27Zm-26.29.5,0,0S108.33,234.74,108.34,234.77Zm.88.59-.14-.09C109.15,235.21,109.19,235.27,109.22,235.36Zm10.8,3.48.09,0v0Zm28.15-21.33-5,.72-2.09.3-.94.13-1,.15-2,.29a.21.21,0,0,1,.06.15c-.15.12-.15.08-.28-.12l-4.5.65-1.12.16-18.89,2.71-1.12.16-6,.86v0l-.32,0v.21c-.14.07-.21,0-.26-.17l-.16,0-1,.15-.94.14-2,.28a.74.74,0,0,0,0,.15l-.09-.13-5,.72.15,1,5.25-.75.07.14h0a.56.56,0,0,1,.19.44q.3.69.66,1.35h.13l.32.69h0a21.82,21.82,0,0,0,3.6,4.6l0-.07,0,.13c.3.28.61.57.92.84a3.51,3.51,0,0,0-.09-.35c.21.16.15-.82.41-.23-.08.27-.36.07-.29.56a.61.61,0,0,1,.07.1c.37.32.75.62,1.14.92l.21.15h0c.06-.51-.34-.19-.34-.64l.14-.17c.08.33,0,.15-.09.17a.37.37,0,0,0,.42.31l-.12.27c.17.4.28-.19.22.24l.56.38a.63.63,0,0,1,0-.27.73.73,0,0,1,.48.55l0-.4c.35.43.55-.11.84.24a2,2,0,0,0-.69.29,21.88,21.88,0,0,0,9,3.14c0-.06,0-.12,0-.14a.55.55,0,0,0,.08.15l.21,0,.12-.4c.63.77.59-.27,1.16.27-.07-.49-.37-.78-.28-1.09.21-.15.13,0,.3.14l-.27,0c.33.19.35.73.76.65l0-.37c.07.42.67.11.57.86h.49v0a.08.08,0,0,0,0,0,19.64,19.64,0,0,0,2.54-.22,22.06,22.06,0,0,0,6.15-1.81.29.29,0,0,1-.15-.24c.14-.15.22,0,.29.18l.49-.24c0-.16.14-.41,0-.64-.08,0-.09.17-.11.22a2.42,2.42,0,0,1-.42-1.07c.16,0,.07.19.27.55,0,0,.14,0,.09-.17a2.09,2.09,0,0,0,.45.48v-.06c.06-.07.11.07.17.16a.59.59,0,0,1-.16-.1l.07.46a21.1,21.1,0,0,0,3-1.87c-.13-.13-.16-.35-.4-.37l.07.33c-.11.16-.27,0-.39,0l.17.32-.13,0,0-.29c-.09,0-.16.08-.17.43l0-.64c.19.14.33-.15.52.08a1.8,1.8,0,0,1-.08-.72c.23.55.58.24.85.33.08,0,.12,0,.15.13a22.48,22.48,0,0,0,6.06-7.52c-.21-.21-.32.07-.46-.39a.51.51,0,0,0,.63,0,21.93,21.93,0,0,0,1.25-3.3l-.15-.08,0-.1s.1,0,.16,0a22.08,22.08,0,0,0,.68-3.5l5.25-.76Zm-46.34,7.86v-.59l.06.38s.1-.07.18.12ZM133,219.92l.27-.06C133.18,220,132.92,220,133,219.92Zm-4.48,3.18.37.22-.11.53c.06-.22-.24-.66-.3-.44Zm-.1.22,0,.16h-.21Zm.1.38.12.47c0-.15.05,0,.08,0-.21.29-.43-.32-.64-.33C128.19,223.51,128.34,223.88,128.52,223.7Zm-2,1,.12.18-.22-.1Zm-1-1.6-.06.21-.18-.12Zm-2,2.19a.69.69,0,0,0,.28.49s0-.07,0-.1v.1h0c0,.2.06.48.11.68l.06-.36c0,.44.33-.27.27.24-.15-.37-.18.19-.15.38-.38-.17-.62-.52-.91-1.16Zm-2,.7.35.13-.37.07Zm-.36-.07s.16.16.1.23c-.12-.18-.26.29-.42.13C120.93,226,121.06,226.22,121.19,226Zm-.93-1.72c.22,0,.2.51.09.58l.26.45c-.2-.06-.24-.5-.35-.43Zm-1.25-1.9c0,.2-.17,0-.26,0C118.77,222.13,119,222.24,119,222.33Zm0,4.29-.15.23.21.31v0l.17.32c-.26.15-.42,0-.51-.45S118.82,226.56,119,226.62Zm-3.35-3h0l.06.08s0-.06-.08-.07a.71.71,0,0,0,0,.59l-.35-.58C115.42,223.67,115.55,223.52,115.67,223.6Zm-.63-1c.12.17.35.13.35.58l-.47-.46Zm-.4.62.06-.36c0,.45.31.14.41.37,0,.4-.1.52-.25.3a1.62,1.62,0,0,1,.13,1l-.17-.16c.15-.23,0-.55-.07-.94s-.53-.24-.61-.73C114.46,222.93,114.39,222.74,114.64,223.19Zm-1.45-.31c-.06.21,0,.3-.15.23C112.9,222.69,113.1,222.9,113.19,222.88Zm-6.75.79a.48.48,0,0,1,0,.25l-.12-.33C106.35,223.53,106.41,223.62,106.44,223.67Zm-.22.89a4,4,0,0,0-.07-.49l0-.2.2.67.66-.1a.28.28,0,0,1,0-.09h0a.34.34,0,0,0,0,.1l1.5-.21c0-.06,0-.13.07-.21s0-.17,0-.09l0,.09a.94.94,0,0,1,0,.2l3.28-.47a11.48,11.48,0,0,0,1.71,1.84c.2-.12.4-.24.6,0l-.06.43a11.44,11.44,0,0,0,5.88,2.33.45.45,0,0,0-.09-.1l-.05,0,.05,0c.11.06,0-.37.21-.19a.61.61,0,0,0-.11-.23h.26l.27.56a11.57,11.57,0,0,0,8.78-3.35l-.07-.21c-.13-.15-.35.15-.34-.36.06.24.2.06.29,0s-.11-.08-.17-.16l.23,0c.1.08.35.28.29.49-.14,0-.25-.35-.35-.13l.05.17a.48.48,0,0,1,.08.2q.42-.43.81-.9l0-.15.09.06a11.76,11.76,0,0,0,1.8-3.18l6.93-1a18.15,18.15,0,0,1-5.56,10.22.81.81,0,0,1-.07.85c-.25.13-.25-.26-.34-.49l-.22.19c0,.09.07.16.09.16s-.15.08-.3,0l0,0a.18.18,0,0,0,0,.11s.07,0,.09,0-.07,0-.09,0l-.1-.06-.07.06a.73.73,0,0,0,0,.16c-.08-.05-.17,0-.26,0a17.62,17.62,0,0,1-1.9,1.29l.06.07-.15,0-.09.05c.11.25-.05.73-.22.36-.09-.13.27.09.17-.28l0,0q-.63.34-1.29.66c0,.1.06.22,0,.28l-.21-.2-.07,0c.08.23.32.39.11.6l.19,0c-.11.82-.44-.11-.66-.28a.69.69,0,0,1,.1-.17l-.27.11s0,0,0,.05-.08,0-.09,0a17.52,17.52,0,0,1-2.26.73c0,.32-.14.18-.22.06-.54.12-1.08.23-1.63.31h-.06v.16l-.13-.14a18.07,18.07,0,0,1-18.59-10Zm24.37,8.22.17.31-.23,0C130.5,233,130.62,233,130.59,232.78Zm-13.12,1.94.24.21c-.17,0-.09.31-.27,0A.88.88,0,0,0,117.47,234.72Zm-3.85-.78a.1.1,0,0,1-.11,0S113.55,233.9,113.62,233.94Zm-2.18-1.82,0,.35-.07,0Zm-1.3-.23s0,0,0,0S110.13,231.89,110.14,231.89Zm-5.53-7h0S104.57,224.84,104.61,224.88Zm-1.44,3.18.1-.07s0,.07,0,.11Zm8.31,6.9,0-.11.2.06Zm5,3-.36-.52c.12-.28.12.17.27.1l0-.2C116.42,237.63,116.55,237.75,116.48,238Zm.15-.22.11-.38.15.22C116.83,237.85,116.64,237.74,116.63,237.79Zm.83-.07-.18,0c-.06-.24-.36-.38-.26-.75-.06.06-.34-.13-.19.24l-.21-.46c.25-.3.51.3.68.61,0-.25,0-.15.16-.13Zm2.06-.26h0l-.17-.11c.18.12-.06-.39.21-.29,0,.15-.1.22,0,.4h0s0-.05.06,0Zm2,1h-.19c0-.35.11-.1.19,0h.07C121.62,238.5,121.6,238.49,121.56,238.45Zm5.18-.91c.18-.19.56,0,.51-.75l.15.66h.09C127.37,237.71,126.92,237.65,126.74,237.54Zm.52-1.29v0l-.12-.17.11.14v-.06l.25.35Zm.57.32c0-.1-.11-.38,0-.35s.14.12,0,.14c0,.34.17.17.24.35Zm.64-.7,0-.12s0,.07,0,.12l.06.36C128.37,236.16,128.44,236,128.47,235.87Zm.74,1.28.07-.57c0,.5.25.36.38.48Zm3.65-3.32.15-.08.06.39Zm.92-1.2c-.09,0,0,.43-.25.22,0-.41.09-.38.25-.22,0,0,0,0,.05.06Zm2-1.18,0,0c-.11.19-.31.23-.42-.07a.14.14,0,0,1,0-.06.14.14,0,0,1,0,.06c.07.11.3.14.32,0l.1.1v0l0,0a1,1,0,0,1,.42.67C136,232.17,135.87,231.77,135.76,231.45Zm.59.14a.51.51,0,0,1,0,.3l0-.3c-.07-.15-.25-.14-.3-.49,0,0,.18-.48,0-.69a3.13,3.13,0,0,1,.73,1.05l-.41.08Zm1.09-1.62-.24-.2c.15.07.17,0,.08-.26.12,0,.22-.35.27.09C137.31,229.25,137.5,229.91,137.44,230Zm1.92-1.39c-.13-.11,0,.29-.16.2.18.11-.06.21,0,.35a.69.69,0,0,1,0-.79l0-.05.23.29.11.14Zm.22-.08c-.06-.23.12-.42.21-.29C139.84,228.5,139.72,228.78,139.58,228.5Zm-2.29.1a.34.34,0,0,0,.18.07c-.06-.54.35,0,.43-.43a5.29,5.29,0,0,0,1,.59c-.12,0,.06.39-.12.43l.09.13c-.12.42-.21-.31-.4,0,.08,1.08-.78.2-.62,1-.59-.48.21-1-.45-1.56-.3-.14,0,.49-.15.38l-.08-.34c0,.25-.09.21-.21.12a19.94,19.94,0,0,1-8.18,6.3c.09.09,0,.29,0,.39l-.19-.21.15-.16-.56.22c0,.22-.07.52.13.44,0,.11-.12.42-.21.14l.05-.31-.27-.16-.28.1-.13.2,0-.14-.34.11a.09.09,0,0,1-.13,0l-.35.1.06.08.07.1-.07-.1c-.12-.12,0,.43-.25.17l.11-.23h0a18.46,18.46,0,0,1-2.58.54,19.86,19.86,0,0,1-13.52-2.9.19.19,0,0,1-.18,0s0,.07,0,.1l0,0c0,.08,0,.08,0,0-.2,0-.18-.19-.21-.38l-.19-.14c0,.09-.2-.13-.26-.15v0a19.92,19.92,0,0,1-6.72-8.13l1-.13a19.1,19.1,0,0,0,20,10.8c.44-.06.88-.14,1.3-.23,0-.1.08-.16.16-.15v.11c.34-.07.68-.16,1-.25h0A19.11,19.11,0,0,0,140,219.72l1-.14A20.16,20.16,0,0,1,137.29,228.6Zm5.28-9.78c0-.1.19-.18.32.09C142.77,218.88,142.63,219.06,142.57,218.82ZM141,226.44a.24.24,0,0,1,.08-.16Zm-15.47,7.89h0S125.52,234.34,125.51,234.33ZM105.2,222.46h0l0,.07h0A.13.13,0,0,1,105.2,222.46Z" fill="#d8252f"/><path d="M98.53,219.55a1.76,1.76,0,0,1,.57,1.16,2,2,0,0,1-.12,1,1.73,1.73,0,0,1-.69.78,3,3,0,0,1-1.22.42,4.26,4.26,0,0,1-1,0,4.31,4.31,0,0,1-.93-.15l-.2-1.45a3.77,3.77,0,0,0,1.67.19.85.85,0,0,0,.54-.23.63.63,0,0,0,.11-.51.55.55,0,0,0-.16-.35.42.42,0,0,0-.36-.09.44.44,0,0,0-.29.13.71.71,0,0,0-.14.29l-1.43.2-.15-3.23,3.62-.5.19,1.32-2.27.32,0,.71a2.18,2.18,0,0,1,1-.37A1.48,1.48,0,0,1,98.53,219.55Z" fill="#d8252f"/><path d="M99.75,222.49l-.16-1.12.66-.09-.43-3.07-.86.12-.11-.77,1.47-.56,1.14-.16.59,4.19.57-.08.15,1.12Z" fill="#d8252f"/><path d="M107.11,219.12a1.24,1.24,0,0,1,.39.79,1.34,1.34,0,0,1-.42,1.25,3.2,3.2,0,0,1-1.68.64,3.27,3.27,0,0,1-1.78-.15,1.27,1.27,0,0,1-.75-1.05,1.25,1.25,0,0,1,.18-.91,1.72,1.72,0,0,1,.64-.56,1.38,1.38,0,0,1-.66-.33,1.12,1.12,0,0,1-.35-.71,1.28,1.28,0,0,1,.39-1.19,3.66,3.66,0,0,1,3.23-.44,1.25,1.25,0,0,1,.7,1,1.22,1.22,0,0,1-.12.78,1.31,1.31,0,0,1-.49.5A1.45,1.45,0,0,1,107.11,219.12Zm-2.7-1.06a.47.47,0,0,0,.93-.13c0-.32-.22-.46-.53-.41A.42.42,0,0,0,104.41,218.06Zm1.28,1.9a.6.6,0,0,0-.19-.39.58.58,0,0,0-.42-.09.53.53,0,0,0-.38.2.59.59,0,0,0-.07.43.47.47,0,0,0,.6.47C105.59,220.54,105.74,220.33,105.69,220Z" fill="#d8252f"/><path d="M109.8,220l.34,0-.43-3.07-.34,0-.15-1.12,3-.41a2.09,2.09,0,0,1,1.39.19,1.49,1.49,0,0,1,.64,1.16,1.46,1.46,0,0,1-.3,1.28,2,2,0,0,1-1.29.57l-.74.1.14,1,.65-.09.16,1.12-2.9.41Zm2.21-2.3c.26,0,.37-.2.33-.49l0-.24a.46.46,0,0,0-.15-.32.38.38,0,0,0-.31-.06l-.23,0,.16,1.12Z" fill="#d8252f"/><path d="M115.54,219.72a3.6,3.6,0,0,1-.58-4.19,2.69,2.69,0,0,1,1.83-.92,2.64,2.64,0,0,1,2,.39,2.82,2.82,0,0,1,1,2,2.86,2.86,0,0,1-.39,2.19,2.65,2.65,0,0,1-1.83.92A2.7,2.7,0,0,1,115.54,219.72Zm2.18-1a.51.51,0,0,0,.06-.4l-.28-2.06a.56.56,0,0,0-.17-.36.56.56,0,0,0-.7.09.62.62,0,0,0-.06.4l.29,2.06a.52.52,0,0,0,.17.37.46.46,0,0,0,.36.07A.48.48,0,0,0,117.72,218.72Z" fill="#d8252f"/><path d="M125.33,213.52l2.18-.31.16,1.12-.27,0-.44,4.32-2,.29-1-2.86h-.06l-.25,3-2,.28-1.67-4-.27,0-.16-1.11L122,214l.16,1.11-.26,0,.51,1.7h.06l.25-3,2-.27,1,2.77h.07l0-1.77-.26,0Z" fill="#d8252f"/><path d="M128.47,218.48l-.16-1.11.34-.05-.42-3.07-.34.05-.16-1.12,4.6-.64.29,2.06-1.53.21-.13-.94-.83.12.15,1.07.6-.08.11.78-.6.08.17,1.21.83-.11-.15-1.08,1.52-.21.31,2.19Z" fill="#d8252f"/><path d="M133.17,216.69l.34-.05-.43-3.06-.34,0-.15-1.11,3.13-.44a2.23,2.23,0,0,1,1.39.17,1.41,1.41,0,0,1,.62,1.11,1.58,1.58,0,0,1-.07.82.93.93,0,0,1-.46.53l0,.07a.72.72,0,0,1,.76.71l.08.53.32,0,.15,1.12-2.16.3-.22-1.6a.8.8,0,0,0-.14-.39.4.4,0,0,0-.27-.15,1.65,1.65,0,0,0-.48,0l.16,1.12.45-.07.15,1.12-2.69.38Zm2.35-2.31a.41.41,0,0,0,.28-.15.52.52,0,0,0,0-.35l0-.24a.46.46,0,0,0-.15-.32.38.38,0,0,0-.31-.06l-.37.05.16,1.12Z" fill="#d8252f"/><path d="M139.39,216.58a1.88,1.88,0,0,1-.8-1.45l-.31-2.28-.34.05-.16-1.12,2.52-.35.16,1.12-.28,0,.37,2.63a.44.44,0,0,0,.15.31.38.38,0,0,0,.31.07.41.41,0,0,0,.28-.15.5.5,0,0,0,.05-.34l-.36-2.63-.28,0-.15-1.11,2.33-.33.16,1.12-.34,0,.32,2.29a1.86,1.86,0,0,1-.36,1.6,2.47,2.47,0,0,1-1.55.7A2.59,2.59,0,0,1,139.39,216.58Z" fill="#d8252f"/><path d="M143.71,215.22l.34-.05-.42-3.06-.35,0-.15-1.11,3-.42a2.12,2.12,0,0,1,1.4.19,1.88,1.88,0,0,1,.34,2.45,2.15,2.15,0,0,1-1.29.56l-.75.11.14,1,.66-.09.15,1.11-2.9.41Zm2.21-2.29c.26,0,.38-.2.34-.5l0-.24a.5.5,0,0,0-.14-.32.39.39,0,0,0-.31-.06l-.24,0,.16,1.12Z" fill="#d8252f"/><path d="M110.46,208.65a2.8,2.8,0,0,1-1.52-1c-1-1.11-1.16-2-.34-2.84a2.26,2.26,0,0,1,.65-.44,1.81,1.81,0,0,1,.59-.16l1,1-.76.72-.28-.29a.55.55,0,0,0-.27-.18.24.24,0,0,0-.23.08.26.26,0,0,0-.09.23.55.55,0,0,0,.16.28l1.18,1.24a.6.6,0,0,0,.28.18.29.29,0,0,0,.32-.31A.54.54,0,0,0,111,207l-.31-.33.76-.73,1,1.07a1.58,1.58,0,0,1-.19.57,2,2,0,0,1-.46.62A1.55,1.55,0,0,1,110.46,208.65Z" fill="#d8252f"/><path d="M114.84,204.74l.15-.09.49.79-1.46.9-.49-.79.23-.14-.3-.35-.51.32.18.42.22-.14.49.79-1.27.79-.49-.79.15-.1L111,203l1.35-.83Zm-2.12.07.34-.21-.74-.86,0,0Z" fill="#d8252f"/><path d="M115.13,204.61l.21-.08-.83-2.41-.21.07-.29-.88,1.81-.62a1.12,1.12,0,0,1,.92,0,1.44,1.44,0,0,1,.61.87,1.52,1.52,0,0,1,.05,1.06,1.13,1.13,0,0,1-.72.57l-.45.16.26.77.4-.14.3.88-1.76.61Zm1-2.05c.16-.06.2-.2.12-.43l-.06-.19a.45.45,0,0,0-.15-.24.22.22,0,0,0-.21,0l-.14,0,.3.88Z" fill="#d8252f"/><path d="M118.35,204.55l-.14-.92.21,0-.4-2.52-.22,0-.14-.92,1.64-.26.14.92-.21,0,.4,2.53.22,0,.14.92Z" fill="#d8252f"/><path d="M123.29,201.22h-.75v-.44h-.28l0,2.55h.3v.93l-1.83,0v-.93h.3l0-2.56h-.28v.44H120v-1.37l3.29,0Z" fill="#d8252f"/><path d="M126.07,203.89l.17,0-.17.91-1.68-.32.17-.91.26,0v-.46l-.58-.11-.16.43.26,0-.17.91-1.47-.27.17-.92.17,0,1.38-3.28,1.56.29Zm-1.62-1.37.4.07,0-1.14h0Z" fill="#d8252f"/><path d="M126.05,204.87l.32-.87.2.08.88-2.4-.21-.08.32-.87,1.73.63-.32.88-.37-.14-.88,2.4.37.13.18-.49.82.3-.5,1.36Z" fill="#d8252f"/><path d="M111.68,230.13l.24.11,1-2.17-.25-.11.36-.79,2.21,1a1.65,1.65,0,0,1,.84.68,1.08,1.08,0,0,1,0,1,1.17,1.17,0,0,1-.38.5.72.72,0,0,1-.52.16l0,.06a.54.54,0,0,1,.21.77l-.17.37.23.1-.36.8-1.52-.69.51-1.14a.64.64,0,0,0,.07-.3.33.33,0,0,0-.12-.21,1.41,1.41,0,0,0-.32-.19l-.35.79.32.15-.36.78-1.91-.85Zm2.47-.55a.3.3,0,0,0,.24,0,.36.36,0,0,0,.18-.2l.07-.17a.4.4,0,0,0,0-.27.28.28,0,0,0-.18-.17l-.26-.12-.35.79Z" fill="#d8252f"/><path d="M115.67,232.8l.2-.85.26.06.53-2.31-.26-.06.19-.85,3.48.8-.36,1.56-1.15-.27.16-.71-.62-.14-.19.81.45.11-.13.58-.45-.1-.21.91.62.15.19-.82,1.15.27-.38,1.66Z" fill="#d8252f"/><path d="M124,232.23h-.26l0,1.06a3,3,0,0,1-.67.26,4.82,4.82,0,0,1-1,.15,2.14,2.14,0,0,1-1.57-.46,2.6,2.6,0,0,1-.14-3.22,2.25,2.25,0,0,1,1.57-.58,4.08,4.08,0,0,1,.94.07,2,2,0,0,1,.67.21l.06,1.26-1.32,0v-.24a.5.5,0,0,0-.11-.32.39.39,0,0,0-.3-.08.37.37,0,0,0-.29.11.46.46,0,0,0-.08.32l.07,1.54a.47.47,0,0,0,.11.32.37.37,0,0,0,.3.08.38.38,0,0,0,.28-.11.42.42,0,0,0,.08-.32v0h-.28l0-.78,1.87-.08Z" fill="#d8252f"/><path d="M124.81,233.29l-.25-.83.25-.08-.69-2.27-.26.07-.25-.83,1.92-.58.25.83-.25.08.69,2.27.26-.08.25.83Z" fill="#d8252f"/><path d="M127.71,231.85a2.74,2.74,0,0,1-1.63-2.8,2.43,2.43,0,0,1,2.58-1.5,2.16,2.16,0,0,1,1.27,1.14,2.18,2.18,0,0,1,.36,1.66,2,2,0,0,1-1,1.19A2,2,0,0,1,127.71,231.85Zm1.26-1.34a.46.46,0,0,0-.07-.3l-.81-1.38a.44.44,0,0,0-.22-.21.36.36,0,0,0-.28,0,.36.36,0,0,0-.19.22.39.39,0,0,0,.07.3l.8,1.38a.41.41,0,0,0,.23.21.33.33,0,0,0,.28-.05A.36.36,0,0,0,129,230.51Z" fill="#d8252f"/><path d="M130.93,224.89l1.23-1.21.61.62-.19.19,2.27,2.31-1.06,1-2.77-.62,1.06,1.09.18-.18.61.62L131.63,230l-.61-.62.19-.18-1.66-1.7-.19.18-.61-.62,1.37-1.33,2.47.54-.88-.89-.18.17Z" fill="#d8252f"/></g></g></svg>