<?xml version="1.0" standalone="no"?>
<!DOCTYPE svg PUBLIC "-//W3C//DTD SVG 20010904//EN"
 "http://www.w3.org/TR/2001/REC-SVG-20010904/DTD/svg10.dtd">
<svg version="1.0" xmlns="http://www.w3.org/2000/svg"
 width="360.000000pt" height="360.000000pt" viewBox="0 0 360.000000 360.000000"
 preserveAspectRatio="xMidYMid meet">
<metadata>
Created by potrace 1.11, written by Peter Selinger 2001-2013
</metadata>
<g transform="translate(0.000000,360.000000) scale(0.100000,-0.100000)"
fill="#000000" stroke="none">
<path d="M200 2430 c-20 -20 -20 -33 -20 -630 0 -597 0 -610 20 -630 20 -20
33 -20 1425 -20 1392 0 1405 0 1425 20 20 20 20 33 20 630 0 597 0 610 -20
630 -20 20 -33 20 -1425 20 -1392 0 -1405 0 -1425 -20z"/>
<path d="M3130 1794 l0 -326 74 4 c85 4 120 22 148 79 16 29 18 64 18 249 l0
215 -26 39 c-32 47 -76 66 -154 66 l-60 0 0 -326z"/>
</g>
</svg>
